<?xml version="1.0" standalone="no"?>
<!DOCTYPE svg PUBLIC "-//W3C//DTD SVG 1.1//EN" "http://www.w3.org/Graphics/SVG/1.1/DTD/svg11.dtd" >
<svg>
<metadata>
Created by FontForge 20110222 at Mon Jul  8 11:32:22 2013
 By Ubuntu
Copyright (c) 1987, 1991, 1994, 1998, 2002 Adobe Systems Incorporated.  All Rights Reserved. (c) 1981, 1998, 2002 Heidelberger Druckmaschinen AG. All rights reserved.
</metadata>
<defs>
<font id="UniversLTStd-Cn" horiz-adv-x="500" >
  <font-face 
    font-family="Univers LT Std 57 Cn"
    font-weight="400"
    font-stretch="condensed"
    units-per-em="1000"
    panose-1="2 11 5 6 2 2 2 5 2 4"
    ascent="724"
    descent="-276"
    x-height="505"
    cap-height="722"
    bbox="-166 -250 1000 989"
    underline-thickness="50"
    underline-position="-50"
    unicode-range="U+0020-FB02"
  />
<missing-glyph 
d="M0 0v700h500v-700h-500zM250 395l170 255h-340zM280 350l170 -255v510zM80 50h340l-170 255zM50 605v-510l170 255z" />
    <glyph glyph-name="fi" unicode="fi" 
d="M423 505v-505h-82v505h82zM336 634v88h92v-88h-92zM9 505h78v98q0 122 145 122q21 0 39 -3v-59q-59 4 -80.5 -15.5t-21.5 -56.5v-86h102v-62h-102v-443h-82v443h-78v62z" />
    <glyph glyph-name="fl" unicode="fl" 
d="M9 505h78v98q0 122 145 122q21 0 39 -3v-59q-59 4 -80.5 -15.5t-21.5 -56.5v-86h102v-62h-102v-443h-82v443h-78v62zM430 722v-722h-82v722h82z" />
    <glyph glyph-name=".notdef" 
d="M0 0v700h500v-700h-500zM250 395l170 255h-340zM280 350l170 -255v510zM80 50h340l-170 255zM50 605v-510l170 255z" />
    <glyph glyph-name=".null" horiz-adv-x="0" 
 />
    <glyph glyph-name="nonmarkingreturn" horiz-adv-x="333" 
 />
    <glyph glyph-name="space" unicode=" " horiz-adv-x="222" 
 />
    <glyph glyph-name="exclam" unicode="!" horiz-adv-x="333" 
d="M201 167h-71l-18 555h109zM214 104v-104h-94v104h94z" />
    <glyph glyph-name="quotedbl" unicode="&#x22;" horiz-adv-x="250" 
d="M35 515v207h60v-207h-60zM155 515v207h60v-207h-60z" />
    <glyph glyph-name="numbersign" unicode="#" horiz-adv-x="444" 
d="M23 0l73 234h-99l17 56h99l35 114h-101l17 56h100l73 234h51l-73 -234h82l71 234h52l-72 -234h102l-17 -56h-102l-35 -114h103l-17 -56h-103l-72 -234h-51l72 234h-80l-74 -234h-51zM165 290h80l35 114h-81z" />
    <glyph glyph-name="dollar" unicode="$" horiz-adv-x="444" 
d="M243 295v-230q46 5 74.5 34t28.5 75q0 40 -26.5 67t-76.5 54zM200 416v209q-38 -5 -61 -31.5t-23 -66.5q0 -67 84 -111zM243 -15v-59h-43v59q-44 0 -78 12t-54.5 30t-34.5 42t-19.5 46t-8 44.5t-2 33.5t1.5 18h94q0 -60 24.5 -101t76.5 -45v252q-42 21 -65.5 34.5
t-54 38.5t-44.5 56t-14 71q0 82 51 135t127 53v59h43v-59q98 0 147 -52.5t49 -151.5h-101q1 58 -20.5 89.5t-74.5 34.5v-231q91 -44 121 -66q76 -58 76 -151q0 -95 -60.5 -143.5t-136.5 -48.5z" />
    <glyph glyph-name="percent" unicode="%" horiz-adv-x="778" 
d="M198 737q35 0 59.5 -11.5t38 -28.5t20.5 -45t8.5 -51t1.5 -57q0 -35 -1.5 -57.5t-8.5 -50t-20.5 -43.5t-38 -27t-59.5 -11t-59.5 11t-38 27t-20.5 43.5t-8.5 50t-1.5 57.5q0 34 1.5 57t8.5 51t20.5 45t38 28.5t59.5 11.5zM198 681q-40 0 -49 -28t-9 -107q0 -35 0.5 -50
t3 -36t9 -29t17.5 -14t28 -6q40 0 49 28t9 107q0 35 -0.5 50t-3 36t-9 29t-17.5 14t-28 6zM579 367q35 0 59.5 -11.5t38 -28.5t20.5 -45t8.5 -51t1.5 -57q0 -35 -1.5 -57.5t-8.5 -50t-20.5 -43.5t-38 -27t-59.5 -11t-59.5 11t-38 27t-20.5 43.5t-8.5 50t-1.5 57.5
q0 34 1.5 57t8.5 51t20.5 45t38 28.5t59.5 11.5zM579 311q-40 0 -49 -28t-9 -107q0 -35 0.5 -50t3 -36t9 -29t17.5 -14t28 -6q40 0 49 28t9 107q0 35 -0.5 50t-3 36t-9 29t-17.5 14t-28 6zM591 758l-343 -794h-63l341 794h65z" />
    <glyph glyph-name="ampersand" unicode="&#x26;" horiz-adv-x="667" 
d="M443 134l-178 225q-30 -21 -46 -33.5t-35 -33t-27.5 -44.5t-8.5 -54q0 -58 41.5 -95t106.5 -37q97 0 147 72zM292 456q80 71 80 130q0 38 -21 59.5t-58 21.5q-35 0 -57.5 -22.5t-22.5 -58.5q0 -22 12.5 -44t36.5 -49.5t30 -36.5zM550 0l-58 74q-40 -49 -87.5 -69
t-113.5 -20q-103 0 -170 53.5t-67 153.5q0 43 10.5 75.5t36.5 59t48 42.5t65 43q-95 109 -95 182t51 108t127 35q74 0 121.5 -36.5t47.5 -109.5q0 -90 -121 -192l141 -179q14 47 14 205h82q0 -195 -44 -270l116 -155h-104z" />
    <glyph glyph-name="quotesingle" unicode="'" horiz-adv-x="250" 
d="M95 515v207h60v-207h-60z" />
    <glyph glyph-name="parenleft" unicode="(" horiz-adv-x="278" 
d="M207 -118h-58q-6 18 -26.5 81.5t-28.5 92t-21 79.5t-18 93.5t-5 85.5q0 44 5 87.5t18.5 96.5t21 80.5t29 94t26.5 83.5h61q-67 -264 -67 -446q0 -161 63 -428z" />
    <glyph glyph-name="parenright" unicode=")" horiz-adv-x="278" 
d="M129 -118h-58q63 267 63 428q0 182 -67 446h61q5 -17 26.5 -83.5t29 -94t21 -80.5t18.5 -96.5t5 -87.5q0 -43 -5 -85.5t-18 -93.5t-21 -79.5t-28.5 -92t-26.5 -81.5z" />
    <glyph glyph-name="asterisk" unicode="*" horiz-adv-x="444" 
d="M412 522l-156 15l91 -130l-58 -32l-67 144l-67 -144l-58 32l91 130l-156 -15v66l156 -12l-90 127l59 34l65 -142l65 142l59 -34l-90 -127l156 12v-66z" />
    <glyph glyph-name="plus" unicode="+" 
d="M219 284v221h62v-221h176v-62h-176v-222h-62v222h-176v62h176z" />
    <glyph glyph-name="comma" unicode="," horiz-adv-x="222" 
d="M34 -127l52 231h103l-91 -231h-64z" />
    <glyph glyph-name="hyphen" unicode="-" horiz-adv-x="333" 
d="M56 234v77h220v-77h-220z" />
    <glyph glyph-name="period" unicode="." horiz-adv-x="222" 
d="M158 104v-104h-94v104h94z" />
    <glyph glyph-name="slash" unicode="/" horiz-adv-x="278" 
d="M278 722l-235 -818h-67l235 818h67z" />
    <glyph glyph-name="zero" unicode="0" horiz-adv-x="444" 
d="M222 705q31 0 56 -6.5t43 -16t32.5 -28.5t23.5 -34.5t15.5 -45t9.5 -48.5t5 -55.5t2 -57v-60.5v-9q0 -164 -17 -227q-32 -122 -149 -131q-10 -1 -21 -1q-31 0 -56 7t-43 16.5t-32.5 29.5t-23.5 36t-15.5 45.5t-9.5 49t-5 56t-2 56.5v60v3q0 163 14 223q28 117 130 135
q20 3 43 3zM222 628q-17 0 -31 -4.5t-23.5 -17t-16.5 -24t-11.5 -36t-7 -42.5t-4 -52.5t-1.5 -58v-67.5v-21v-43.5t1 -41.5t3.5 -42t7 -36.5t11.5 -33t16.5 -23.5t23.5 -17.5t32 -5.5t32 6t23.5 16.5t17 25t11.5 32t6.5 37t3 40.5t1.5 43t0 43v21v67.5t-1.5 58t-4 52.5
t-7 42.5t-11.5 36t-16.5 24t-23.5 17t-31 4.5z" />
    <glyph glyph-name="one" unicode="1" horiz-adv-x="444" 
d="M289 694v-694h-92v593l-104 -70v88q34 15 117 83h79z" />
    <glyph glyph-name="two" unicode="2" horiz-adv-x="444" 
d="M416 0h-373v80q38 54 88.5 122.5t71 97t47 68t35 61.5t15 49.5t6.5 57.5q0 43 -21.5 67.5t-64.5 24.5q-83 0 -81 -113h-94q-6 88 37.5 139t130.5 51q94 0 139.5 -44.5t45.5 -137.5q0 -46 -8 -81t-33 -76.5t-46.5 -70t-76 -96t-93.5 -119.5h275v-80z" />
    <glyph glyph-name="three" unicode="3" horiz-adv-x="444" 
d="M169 323v81q65 -6 103.5 22.5t38.5 92.5q0 50 -23.5 79.5t-72.5 29.5q-89 0 -87 -113h-92q-5 91 39.5 140.5t139.5 49.5q90 0 139 -45.5t49 -134.5q0 -37 -11.5 -66t-24.5 -44.5t-37 -27.5t-33.5 -15t-30.5 -8v-2q79 -11 111.5 -53.5t32.5 -123.5q0 -200 -206 -200
q-183 0 -179 198v8h92q1 -62 19.5 -95.5t75.5 -33.5q106 0 106 125q0 81 -32.5 108.5t-116.5 27.5z" />
    <glyph glyph-name="four" unicode="4" horiz-adv-x="444" 
d="M105 249h152v361h-2zM257 169h-232v80l196 445h122v-445h82v-80h-82v-169h-86v169z" />
    <glyph glyph-name="five" unicode="5" horiz-adv-x="444" 
d="M59 694h324v-80h-232v-202l2 -2q11 22 42.5 37t67.5 15q74 0 109.5 -57t35.5 -177q0 -40 -2.5 -69t-13.5 -64t-30.5 -57t-55.5 -37.5t-86 -15.5q-99 0 -135 45.5t-36 126.5h92q0 -45 19.5 -75t62.5 -30q31 0 51 13.5t28.5 38.5t11 47t2.5 54q0 37 -1 58.5t-5.5 48t-14 40
t-26.5 23.5t-42 10q-36 0 -57.5 -22t-27.5 -59h-83v390z" />
    <glyph glyph-name="six" unicode="6" horiz-adv-x="444" 
d="M130 225q0 -163 98 -163q51 0 69.5 46t18.5 127q0 140 -94 140q-92 0 -92 -150zM223 -15q-31 0 -56 7t-43 16.5t-32.5 29.5t-23.5 36t-15.5 45.5t-9.5 49t-5 56t-2 56.5v60v3q0 163 14 223q28 117 130 135q20 3 43 3q79 0 127 -45.5t45 -123.5h-92q0 40 -21.5 71
t-59.5 31q-55 0 -74.5 -54.5t-19.5 -196.5h2q37 65 113 65q165 0 165 -233q0 -102 -45 -168t-140 -66z" />
    <glyph glyph-name="seven" unicode="7" horiz-adv-x="444" 
d="M30 614v80h359v-80l-185 -614h-104l194 614h-264z" />
    <glyph glyph-name="eight" unicode="8" horiz-adv-x="444" 
d="M222 62q48 0 70.5 36.5t22.5 87.5q0 22 -1.5 39t-7 37.5t-15 34t-27 22.5t-42.5 9t-42.5 -9t-27 -22.5t-15 -34t-7 -37.5t-1.5 -39q0 -51 22.5 -87.5t70.5 -36.5zM279 368v-1q128 -13 128 -180q0 -95 -47.5 -148.5t-137.5 -53.5t-137.5 53.5t-47.5 148.5q0 167 128 180v1
q-59 12 -90 56.5t-31 106.5q0 81 48 127.5t130 46.5t130 -46.5t48 -127.5q0 -62 -31 -106.5t-90 -56.5zM222 408q46 0 66 38.5t20 87.5q0 43 -22 73.5t-64 30.5t-64 -30.5t-22 -73.5q0 -49 20 -87.5t66 -38.5z" />
    <glyph glyph-name="nine" unicode="9" horiz-adv-x="444" 
d="M221 638q-93 0 -93 -144t93 -144t93 144t-93 144zM221 705q31 0 56 -6.5t43 -16t32.5 -28.5t23.5 -34.5t15.5 -45t9.5 -48.5t5 -55.5t2 -57v-60.5v-9q0 -164 -17 -227q-32 -122 -149 -131q-10 -1 -21 -1q-78 0 -125 49.5t-46 131.5h92q0 -44 19 -74t60 -30q26 0 44 12.5
t28 32t15 58t6.5 75t1.5 98.5h-2q-30 -65 -119 -65q-25 0 -49 8t-50.5 29.5t-43 68t-16.5 113.5q0 109 53.5 161t131.5 52z" />
    <glyph glyph-name="colon" unicode=":" horiz-adv-x="222" 
d="M158 505v-104h-94v104h94zM158 104v-104h-94v104h94z" />
    <glyph glyph-name="semicolon" unicode=";" horiz-adv-x="222" 
d="M34 -127l52 231h103l-91 -231h-64zM158 505v-104h-94v104h94z" />
    <glyph glyph-name="less" unicode="&#x3c;" 
d="M120 253l339 -193v-73l-417 234v64l417 230v-73z" />
    <glyph glyph-name="equal" unicode="=" 
d="M457 384v-62h-414v62h414zM457 187v-62h-414v62h414z" />
    <glyph glyph-name="greater" unicode="&#x3e;" 
d="M41 60l339 193l-339 189v73l417 -230v-64l-417 -234v73z" />
    <glyph glyph-name="question" unicode="?" horiz-adv-x="444" 
d="M260 183h-82v114q0 29 19 62t41.5 59.5t41.5 68t19 85.5q0 38 -19 68t-56 30q-77 0 -74 -139h-94q-8 206 174 206q76 0 119.5 -45t43.5 -122q0 -56 -21 -105t-45.5 -76t-45.5 -58t-21 -55v-93zM266 104v-104h-94v104h94z" />
    <glyph glyph-name="at" unicode="@" horiz-adv-x="788" 
d="M431 536q-73 0 -123.5 -81t-50.5 -160q0 -39 21 -67.5t57 -28.5q41 0 75 34.5t53 82t29 87.5t10 60q0 30 -20 51.5t-51 21.5zM544 529l14 47h69l-103 -305q-13 -36 -13 -52q0 -26 30 -26q55 0 111 64.5t56 172.5q0 23 -5 49.5t-24 64.5t-50 66.5t-90.5 49.5t-137.5 21
q-133 0 -227 -93.5t-94 -226.5t93.5 -226.5t227.5 -93.5q92 0 165.5 34t118.5 99h60q-48 -88 -140 -138.5t-204 -50.5q-156 0 -266.5 110t-110.5 267q0 156 110.5 265.5t266.5 109.5q95 0 167 -29t108 -67t57.5 -86.5t26 -76.5t4.5 -48q0 -80 -26 -140.5t-65 -91.5
t-76.5 -46t-69.5 -15q-29 0 -54 13.5t-33 39.5q-49 -51 -120 -51q-63 0 -101.5 44t-38.5 107q0 69 30.5 138.5t89.5 118.5t130 49q37 0 68 -17.5t46 -49.5z" />
    <glyph glyph-name="A" unicode="A" horiz-adv-x="611" 
d="M15 0l229 722h117l235 -722h-103l-52 172h-279l-54 -172h-93zM416 252l-116 385h-2l-113 -385h231z" />
    <glyph glyph-name="B" unicode="B" horiz-adv-x="611" 
d="M182 338v-258h130q67 0 100 38t33 85q0 42 -12 69.5t-36 41.5t-51 19t-66 5h-98zM182 642v-224h134q53 1 80 31t27 84q0 48 -28 78.5t-83 30.5h-130zM322 0h-232v722h235q68 0 102.5 -19t58.5 -55q29 -45 29 -96q0 -71 -28.5 -113.5t-95.5 -57.5v-5q148 -17 148 -173
q0 -203 -217 -203z" />
    <glyph glyph-name="C" unicode="C" horiz-adv-x="556" 
d="M494 523h-95q2 77 -21 105q-13 15 -37.5 23t-43.5 8q-34 0 -60.5 -12.5t-36.5 -24t-12 -19.5q0 -1 -2.5 -5.5t-4.5 -9.5t-4.5 -16.5t-4.5 -26t-3.5 -39t-1.5 -53.5v-193q0 -64 9.5 -105.5t29 -60.5t40 -25.5t50.5 -6.5q15 0 30 4.5t36 17.5t34.5 46.5t13.5 82.5h95
q1 -47 -8 -84.5t-22 -60.5t-34 -40t-38 -25t-40.5 -12.5t-34.5 -5t-27 -0.5q-25 0 -41.5 1t-42.5 7t-44 16.5t-38.5 31.5t-32.5 50.5t-20.5 75.5t-8.5 104v204q0 145 59 203.5t173 58.5q105 0 150.5 -53.5t38.5 -160.5z" />
    <glyph glyph-name="D" unicode="D" horiz-adv-x="611" 
d="M175 642v-562h87q98 0 136.5 46t38.5 170v146q0 108 -34 154t-107 46h-121zM83 0v722h222q143 0 194 -110q32 -67 32 -228q0 -221 -44 -291q-59 -93 -238 -93h-166z" />
    <glyph glyph-name="E" unicode="E" 
d="M459 0h-378v722h372v-80h-280v-232h260v-80h-260v-250h286v-80z" />
    <glyph glyph-name="F" unicode="F" horiz-adv-x="444" 
d="M166 0h-92v722h358v-80h-266v-232h252v-80h-252v-330z" />
    <glyph glyph-name="G" unicode="G" horiz-adv-x="611" 
d="M523 529h-96q0 66 -30 98.5t-98 32.5q-13 0 -25.5 -1.5t-33.5 -10t-36 -24t-26.5 -46.5t-11.5 -74v-244q0 -113 32 -155.5t101 -42.5q86 0 129 32v216h-133v80h225v-351q-100 -54 -221 -54q-117 0 -172 65.5t-55 213.5v237q0 111 57.5 173.5t169.5 62.5
q119 0 173.5 -48.5t50.5 -159.5z" />
    <glyph glyph-name="H" unicode="H" horiz-adv-x="611" 
d="M179 0h-92v722h92v-312h253v312h92v-722h-92v330h-253v-330z" />
    <glyph glyph-name="I" unicode="I" horiz-adv-x="278" 
d="M185 722v-722h-92v722h92z" />
    <glyph glyph-name="J" unicode="J" 
d="M30 224h96q0 -4 0.5 -25t1 -28t2.5 -26t5.5 -27t10 -21.5t15.5 -19t22.5 -10.5t30.5 -5q28 0 48 10t31 24.5t16.5 39.5t7 45.5t1.5 52.5v488h92v-543q0 -20 -1.5 -36t-12 -48t-29.5 -53.5t-59.5 -39t-96.5 -17.5q-40 0 -84.5 16.5t-67.5 54.5q-29 48 -29 168z" />
    <glyph glyph-name="K" unicode="K" horiz-adv-x="556" 
d="M173 0h-92v722h92v-317h3l252 317h104l-262 -326l277 -396h-118l-253 377h-3v-377z" />
    <glyph glyph-name="L" unicode="L" horiz-adv-x="444" 
d="M438 0h-357v722h92v-642h265v-80z" />
    <glyph glyph-name="M" unicode="M" horiz-adv-x="833" 
d="M168 642v-642h-86v722h149l182 -606h2l184 606h152v-722h-92v642h-2l-202 -642h-87l-198 642h-2z" />
    <glyph glyph-name="N" unicode="N" horiz-adv-x="667" 
d="M499 722h82v-722h-126l-285 626h-2v-626h-82v722h130l281 -618h2v618z" />
    <glyph glyph-name="O" unicode="O" horiz-adv-x="611" 
d="M305 -15q-117 0 -172 65.5t-55 213.5v237q0 111 57.5 173.5t169.5 62.5t169.5 -62.5t57.5 -173.5v-237q0 -148 -55 -213.5t-172 -65.5zM305 62q69 0 101 42.5t32 155.5v244q0 43 -11.5 74t-26.5 46.5t-36 24t-33.5 10t-25.5 1.5t-25.5 -1.5t-33.5 -10t-36 -24
t-26.5 -46.5t-11.5 -74v-244q0 -113 32 -155.5t101 -42.5z" />
    <glyph glyph-name="P" unicode="P" horiz-adv-x="556" 
d="M185 642v-244h101q19 0 37 4t40.5 15t36.5 37.5t14 66.5q0 38 -12.5 64.5t-31.5 37.5t-33 15t-25 4h-127zM185 0h-92v722h214q201 0 201 -206q0 -58 -20.5 -99.5t-53.5 -61.5t-64.5 -28.5t-63.5 -8.5h-121v-318z" />
    <glyph glyph-name="Q" unicode="Q" horiz-adv-x="611" 
d="M300 74q77 0 104.5 44.5t27.5 141.5v244q0 43 -11.5 74t-26.5 46.5t-36 24t-33.5 10t-25.5 1.5t-25.5 -1.5t-33.5 -10t-36 -24t-26.5 -46.5t-11.5 -74v-244q0 -96 28.5 -141t105.5 -45zM72 264v237q0 111 57.5 173.5t169.5 62.5t169.5 -62.5t57.5 -173.5v-237
q0 -50 -17.5 -118t-45.5 -80l2 -2q52 16 63 16h72v-80h-300q-27 0 -44 1t-43.5 6.5t-44 15t-37.5 29t-31.5 47t-19.5 69.5t-8 96z" />
    <glyph glyph-name="R" unicode="R" horiz-adv-x="556" 
d="M171 642v-230h138q47 0 72.5 34.5t25.5 85.5q0 45 -24 77.5t-73 32.5h-139zM279 332h-108v-332h-92v722h249q89 0 131 -52t42 -128q0 -65 -34.5 -109.5t-97.5 -55.5v-2q65 -10 89.5 -45.5t28.5 -140.5q1 -33 8.5 -96t16.5 -93h-96q-12 23 -16.5 57t-7 95t-4.5 88
q-7 92 -109 92z" />
    <glyph glyph-name="S" unicode="S" horiz-adv-x="556" 
d="M61 215h91v-21q0 -68 35 -98.5t86 -30.5q129 0 129 117q0 44 -33.5 77t-81 57t-95 50t-81 70.5t-33.5 104.5q0 93 59 144.5t153 51.5q209 0 200 -211h-96q1 64 -24 97.5t-87 33.5q-47 0 -79 -26t-32 -80q0 -43 33.5 -76t81 -56.5t95 -50t81 -73t33.5 -109.5
q0 -106 -62.5 -153.5t-161.5 -47.5q-61 -1 -104 17.5t-63.5 42t-31 60t-12 58.5t-0.5 52z" />
    <glyph glyph-name="T" unicode="T" 
d="M14 722h472v-80h-190v-642h-92v642h-190v80z" />
    <glyph glyph-name="U" unicode="U" horiz-adv-x="611" 
d="M78 264v458h92v-462q0 -113 32.5 -155.5t102.5 -42.5t102.5 42.5t32.5 155.5v462h92v-458q0 -148 -55 -213.5t-172 -65.5t-172 65.5t-55 213.5z" />
    <glyph glyph-name="V" unicode="V" horiz-adv-x="556" 
d="M543 722l-211 -722h-110l-209 722h100l165 -635h2l169 635h94z" />
    <glyph glyph-name="W" unicode="W" horiz-adv-x="889" 
d="M182 0l-176 722h98l136 -626h2l145 626h119l131 -626h2l147 626h96l-191 -722h-112l-137 626h-2l-146 -626h-112z" />
    <glyph glyph-name="X" unicode="X" horiz-adv-x="556" 
d="M328 374l216 -374h-111l-168 309l-159 -309h-100l208 374l-197 348h106l148 -280l150 280h101z" />
    <glyph glyph-name="Y" unicode="Y" 
d="M252 373l146 349h93l-197 -447v-275h-92v275l-194 447h103z" />
    <glyph glyph-name="Z" unicode="Z" 
d="M467 722v-92l-358 -550h366v-80h-451v104l350 536v2h-338v80h431z" />
    <glyph glyph-name="bracketleft" unicode="[" horiz-adv-x="278" 
d="M239 -118h-169v874h166v-56h-84v-762h87v-56z" />
    <glyph glyph-name="backslash" unicode="\" horiz-adv-x="278" 
d="M211 -15l-212 737h67l212 -737h-67z" />
    <glyph glyph-name="bracketright" unicode="]" horiz-adv-x="278" 
d="M208 -118h-169v56h87v762h-84v56h166v-874z" />
    <glyph glyph-name="asciicircum" unicode="^" 
d="M217 694h60l156 -417h-75l-112 318h-2l-110 -318h-68z" />
    <glyph glyph-name="underscore" unicode="_" 
d="M500 -125h-500v50h500v-50z" />
    <glyph glyph-name="grave" unicode="`" horiz-adv-x="278" 
d="M20 722h109l89 -141h-67z" />
    <glyph glyph-name="a" unicode="a" 
d="M330 251q-89 -1 -118 -10q-65 -20 -65 -91q0 -40 20 -66.5t59 -26.5q114 0 104 194zM332 0v73h-2q-36 -83 -127 -83q-76 0 -107 43.5t-31 122.5q0 44 17.5 75t42 47t63.5 24.5t69.5 10t72.5 0.5q0 20 0.5 40t-4 38t-13 32t-26 22t-42.5 8q-41 0 -62 -25t-17 -65h-89
q3 82 45.5 117t125.5 35q91 0 127.5 -40.5t36.5 -111.5v-243q0 -55 10 -120h-90z" />
    <glyph glyph-name="b" unicode="b" 
d="M161 273q0 -102 8 -137q19 -79 84 -79q21 0 38 7t27.5 16.5t18 26.5t11.5 30.5t5.5 36t2 35t0.5 34.5q0 111 -19 158t-81 47q-22 0 -38.5 -8t-26.5 -23t-16.5 -31t-9 -38.5t-3.5 -38t-1 -36.5zM161 60v-60h-82v722h82v-268h3q43 61 111 61q34 0 60.5 -9t44 -22
t29.5 -36.5t18.5 -43.5t10 -51.5t4 -53t0.5 -55.5q0 -80 -13.5 -133t-38.5 -78t-50.5 -34t-60.5 -9q-74 0 -116 70h-2z" />
    <glyph glyph-name="c" unicode="c" 
d="M421 343h-85q1 56 -20 80.5t-50 24.5q-52 0 -79 -35.5t-27 -132.5q0 -126 22 -174.5t84 -48.5q24 0 49.5 26t23.5 85h86q1 -50 -15 -87t-42.5 -55.5t-52 -27t-49.5 -8.5q-45 0 -76 9t-59.5 34.5t-42.5 78t-14 133.5q0 51 3 85.5t14.5 72.5t31.5 60.5t56 37t87 14.5
q77 0 118 -44t37 -128z" />
    <glyph glyph-name="d" unicode="d" 
d="M339 273q0 21 -1 36.5t-3.5 38t-9 38.5t-16.5 31t-26.5 23t-38.5 8q-62 0 -81 -47t-19 -158q0 -22 0.5 -34.5t2 -35t5.5 -36t11.5 -30.5t18 -26.5t27.5 -16.5t38 -7q22 0 38.5 8t26.5 26t15.5 34.5t8 47t3 48.5t0.5 52zM339 454v268h82v-722h-82v60h-2q-42 -70 -116 -70
q-35 0 -60.5 9t-50.5 34t-38.5 78t-13.5 133q0 34 0.5 55.5t4 53t10 51.5t18.5 43.5t29.5 36.5t44 22t60.5 9q68 0 111 -61h3z" />
    <glyph glyph-name="e" unicode="e" 
d="M152 288h197q0 102 -24.5 133.5t-76.5 31.5q-45 0 -70 -34.5t-26 -130.5zM436 226h-284q0 -99 24.5 -134t77.5 -35q40 0 63 27.5t25 68.5h90q-1 -82 -47.5 -122.5t-128.5 -40.5q-45 0 -76 9t-59.5 34.5t-42.5 78t-14 133.5q0 51 3 85.5t14.5 72.5t31.5 60.5t56 37
t87 14.5q104 0 142 -57.5t38 -188.5v-43z" />
    <glyph glyph-name="f" unicode="f" horiz-adv-x="278" 
d="M9 505h78v98q0 122 145 122q21 0 39 -3v-59q-59 4 -80.5 -15.5t-21.5 -56.5v-86h102v-62h-102v-443h-82v443h-78v62z" />
    <glyph glyph-name="g" unicode="g" 
d="M341 255q0 97 -14 134q-22 58 -84 58q-27 0 -46 -13t-28.5 -30t-14.5 -44.5t-6 -46t-1 -45.5q0 -115 24 -157.5t74 -42.5q24 0 41.5 8t27.5 26t16 32t8 42.5t2.5 39.5t0.5 39zM339 443v62h82v-556q0 -80 -47.5 -110t-138.5 -30q-68 0 -113 34.5t-40 100.5h92
q1 -35 22 -54t55 -19q42 0 65 23.5t23 63.5v105h-3q-15 -29 -46 -46t-65 -17q-50 0 -83.5 20t-50.5 58.5t-23.5 83.5t-6.5 106q0 66 13 114.5t30.5 73t41.5 39t40 17.5t33 3q84 0 118 -72h2z" />
    <glyph glyph-name="h" unicode="h" 
d="M428 0h-82v342q0 106 -90 106q-57 0 -80 -40t-23 -111v-297h-82v722h82v-282h4q24 43 55 59t82 16q67 0 100.5 -37t33.5 -120v-358z" />
    <glyph glyph-name="i" unicode="i" horiz-adv-x="222" 
d="M152 505v-505h-82v505h82zM65 634v88h92v-88h-92z" />
    <glyph glyph-name="j" unicode="j" horiz-adv-x="222" 
d="M70 -74v579h82v-575q0 -65 -29 -93t-114 -28v70q31 0 46 9t15 38zM65 634v88h92v-88h-92z" />
    <glyph glyph-name="k" unicode="k" horiz-adv-x="444" 
d="M154 283v-283h-82v722h82v-435h2l154 218h100l-168 -217l198 -288h-104l-180 283h-2z" />
    <glyph glyph-name="l" unicode="l" horiz-adv-x="222" 
d="M152 722v-722h-82v722h82z" />
    <glyph glyph-name="m" unicode="m" horiz-adv-x="722" 
d="M402 0h-82v350q0 98 -80 98q-19 0 -40.5 -10t-30.5 -24q-19 -32 -19 -74v-340h-82v400q0 47 -5 105h87v-63h2q32 73 126 73q38 0 71.5 -16.5t46.5 -48.5q34 65 120 65q138 0 138 -131v-384h-82v350q0 98 -80 98q-25 0 -35.5 -3t-26.5 -16q-28 -23 -28 -89v-340z" />
    <glyph glyph-name="n" unicode="n" 
d="M428 0h-82v350q0 98 -89 98q-103 0 -103 -149v-299h-82v400q0 47 -5 105h87v-65h4q24 42 54.5 58.5t80.5 16.5q76 0 105.5 -41.5t29.5 -123.5v-350z" />
    <glyph glyph-name="o" unicode="o" 
d="M250 57q62 0 84 48.5t22 174.5q0 97 -27 132.5t-79 35.5t-79 -35.5t-27 -132.5q0 -126 22 -174.5t84 -48.5zM250 -10q-45 0 -76 9t-59.5 34.5t-42.5 78t-14 133.5q0 51 3 85.5t14.5 72.5t31.5 60.5t56 37t87 14.5t87 -14.5t56 -37t31.5 -60.5t14.5 -72.5t3 -85.5
q0 -81 -14 -133.5t-42.5 -78t-59.5 -34.5t-76 -9z" />
    <glyph glyph-name="p" unicode="p" 
d="M256 57q62 0 81 46.5t19 157.5q0 26 -0.5 41t-3 40.5t-9.5 41t-17.5 32t-29 24.5t-43.5 8q-17 0 -31 -5.5t-23 -14.5t-16.5 -22t-11 -28t-6.5 -31.5t-3.5 -33.5t-1 -33.5t0.5 -30.5v-18q0 -33 2.5 -56.5t10.5 -54t29 -47t53 -16.5zM161 505v-60h2q42 70 116 70
q35 0 60.5 -9t50.5 -34t38.5 -78t13.5 -133q0 -34 -0.5 -55.5t-4 -53t-10 -51.5t-18.5 -43.5t-29.5 -36.5t-44 -22t-60.5 -9q-68 0 -111 61h-3v-242h-82v696h82z" />
    <glyph glyph-name="q" unicode="q" 
d="M244 57q32 0 53 16.5t29 47t10.5 54t2.5 56.5q0 101 -8 136q-18 79 -84 79q-25 0 -43.5 -7.5t-29 -24t-17.5 -31.5t-9.5 -41t-3 -40.5t-0.5 -40.5q0 -111 19 -157.5t81 -46.5zM339 445v60h82v-696h-82v242h-3q-43 -61 -111 -61q-34 0 -60.5 9t-44 22t-29.5 36.5
t-18.5 43.5t-10 51.5t-4 53t-0.5 55.5q0 80 13.5 133t38.5 78t50.5 34t60.5 9q74 0 116 -70h2z" />
    <glyph glyph-name="r" unicode="r" horiz-adv-x="333" 
d="M157 505v-76h2q24 54 57 70t99 16v-85q-4 0 -11 1t-11 2q-14 2 -22 2q-114 0 -114 -137v-298h-82v505h82z" />
    <glyph glyph-name="s" unicode="s" horiz-adv-x="444" 
d="M397 144q0 -79 -48 -116.5t-128 -37.5q-85 0 -130.5 40t-43.5 124h93q0 -97 84 -97q39 0 63 20t24 57q0 24 -26 44.5t-63 37t-74 36t-63 51.5t-26 74q0 23 7.5 44.5t25.5 44t54.5 36t86.5 13.5q73 0 119 -36t41 -107h-91q2 81 -79 81q-34 0 -56 -18t-22 -50
q0 -24 26 -43.5t63 -36t74 -35.5t63 -51t26 -75z" />
    <glyph glyph-name="t" unicode="t" horiz-adv-x="278" 
d="M-2 505h83v97l82 37v-134h110v-62h-110v-309q0 -17 1.5 -26t7.5 -22t22.5 -19t43.5 -6q1 0 37 4v-63q-9 -1 -37.5 -4.5t-43.5 -3.5q-113 0 -113 90v359h-83v62z" />
    <glyph glyph-name="u" unicode="u" 
d="M342 170v335h82v-400q0 -47 5 -105h-87v61h-3q-42 -71 -128 -71q-136 0 -136 130v385h82v-350q0 -47 22 -74.5t64 -27.5q38 0 68.5 29.5t30.5 87.5z" />
    <glyph glyph-name="v" unicode="v" horiz-adv-x="444" 
d="M164 0l-150 505h92l113 -428h2l122 428h86l-158 -505h-107z" />
    <glyph glyph-name="w" unicode="w" horiz-adv-x="722" 
d="M135 0l-126 505h91l91 -435h2l112 435h116l103 -435h2l100 435h87l-135 -505h-110l-108 430h-2l-113 -430h-110z" />
    <glyph glyph-name="x" unicode="x" horiz-adv-x="444" 
d="M270 264l167 -264h-108l-117 207l-109 -207h-97l157 264l-144 241h105l96 -181l102 181h99z" />
    <glyph glyph-name="y" unicode="y" horiz-adv-x="444" 
d="M103 505l121 -411h2l121 411h89l-229 -696h-85l57 191l-171 505h95z" />
    <glyph glyph-name="z" unicode="z" horiz-adv-x="389" 
d="M347 505v-75l-223 -363h230v-67h-319v77l220 359v2h-209v67h301z" />
    <glyph glyph-name="braceleft" unicode="{" horiz-adv-x="274" 
d="M179 196v-172q0 -45 18.5 -67t68.5 -22v-56q-98 -3 -133.5 30t-35.5 117v197q0 19 -3.5 31.5t-14 21t-17 12t-26.5 10t-29 9.5v56q47 10 68.5 26t21.5 51v186q0 21 4 38t8.5 30t15 23t17.5 16.5t21.5 11t21.5 6.5t23 3.5t21 1.5h20.5h16.5v-56q-51 0 -69 -22t-18 -68
v-153q0 -52 -21.5 -81t-80.5 -40v-2q61 -13 81.5 -46t20.5 -92z" />
    <glyph glyph-name="bar" unicode="|" horiz-adv-x="250" 
d="M94 -250v1000h62v-1000h-62z" />
    <glyph glyph-name="braceright" unicode="}" horiz-adv-x="274" 
d="M94 24v172q0 59 20.5 92t81.5 46v2q-59 11 -80.5 40t-21.5 81v153q0 46 -18 68t-69 22v56h16.5h20.5t21 -1.5t23 -3.5t21.5 -6.5t21.5 -11t17.5 -16.5t15 -23t8.5 -30t4 -38v-186q0 -35 21.5 -51t68.5 -26v-56q-9 -3 -29 -9.5t-26.5 -10t-17 -12t-14 -21t-3.5 -31.5v-197
q0 -84 -35.5 -117t-133.5 -30v56q50 0 68.5 22t18.5 67z" />
    <glyph glyph-name="asciitilde" unicode="~" 
d="M161 332q34 0 96 -35q68 -35 85 -35q44 0 81 83l34 -47q-49 -111 -116 -111q-23 0 -111 44q-48 25 -69 25q-20 0 -37.5 -16t-25 -31t-20.5 -43l-34 48q24 53 51 85.5t66 32.5z" />
    <glyph glyph-name="uni00A0" unicode="&#xa0;" horiz-adv-x="222" 
 />
    <glyph glyph-name="exclamdown" unicode="&#xa1;" horiz-adv-x="333" 
d="M214 531v-104h-94v104h94zM132 364h71l18 -555h-109z" />
    <glyph glyph-name="cent" unicode="&#xa2;" horiz-adv-x="444" 
d="M145 134l126 305q-12 9 -33 9q-52 0 -79 -35.5t-27 -132.5q0 -99 11 -146h2zM311 168h86q0 -80 -48.5 -129.5t-110.5 -49.5q-64 0 -102 20l-28 -67l-37 16l31 75q-56 59 -56 212q0 51 3 85.5t14.5 72.5t31.5 60.5t56 37t87 14.5q34 0 61 -9l26 63l35 -15l-26 -64
q64 -41 59 -147h-85q0 40 -8 63l-133 -321q23 -29 71 -29q36 0 54 32.5t19 79.5z" />
    <glyph glyph-name="sterling" unicode="&#xa3;" horiz-adv-x="444" 
d="M-4 338v80h80v81v14q-1 14 -0.5 23.5t2 28t6.5 32t13 31.5t22 30.5t32.5 23.5t45.5 17t60 6q86 0 132.5 -47t42.5 -133h-96q4 103 -80 103q-22 0 -38.5 -4.5t-25.5 -16t-14.5 -19t-7.5 -28t-2 -27v-30.5v-85h138v-80h-138v-258h260v-80h-426v80h74v258h-80z" />
    <glyph glyph-name="currency" unicode="&#xa4;" horiz-adv-x="444" 
d="M1 110l39 42q-43 70 -43 148q0 84 43 151l-39 43l47 53l39 -43q59 49 139 49q68 0 131 -49l40 43l47 -53l-38 -43q42 -71 42 -156q0 -71 -42 -143l38 -42l-47 -53l-40 43q-61 -50 -139 -50q-66 0 -131 50l-39 -43zM226 486q-68 0 -107.5 -52.5t-39.5 -133.5
q0 -75 39 -129t102 -54q66 0 106 53.5t40 132.5q0 75 -38.5 129t-101.5 54z" />
    <glyph glyph-name="yen" unicode="&#xa5;" horiz-adv-x="444" 
d="M66 132v67h114v66h-114v67h89l-157 362h97l130 -321l134 321h88l-160 -362h91v-67h-116v-66h116v-67h-116v-132h-82v132h-114z" />
    <glyph glyph-name="brokenbar" unicode="&#xa6;" horiz-adv-x="250" 
d="M94 175h62v-350h-62v350zM94 675h62v-350h-62v350z" />
    <glyph glyph-name="section" unicode="&#xa7;" horiz-adv-x="444" 
d="M217 284q24 6 53.5 30.5t29.5 58.5q0 20 -11 35t-21 20.5t-31 13t-23 8.5q-77 -31 -77 -86q0 -16 3.5 -27.5t13 -19.5t16 -12t23.5 -11t24 -10zM69 5v86q2 0 24.5 -9t49 -14.5t55.5 -5.5q38 0 67 17t29 50q0 30 -24.5 49t-60 30.5t-70.5 24.5t-59.5 40.5t-24.5 69.5
q0 80 103 129q-44 21 -67 47.5t-23 70.5q0 72 51.5 109.5t121.5 37.5q60 0 114 -19v-84q-76 26 -109 26q-32 0 -58 -16.5t-26 -46.5q0 -28 22.5 -46.5t55 -29.5t65 -24t55 -39.5t22.5 -66.5q0 -46 -29 -81t-74 -50v-2q47 -10 78 -42t31 -78q0 -77 -53.5 -115t-133.5 -38
q-60 0 -132 20z" />
    <glyph glyph-name="dieresis" unicode="&#xa8;" horiz-adv-x="278" 
d="M98 694v-104h-94v104h94zM274 694v-104h-94v104h94z" />
    <glyph glyph-name="copyright" unicode="&#xa9;" horiz-adv-x="800" 
d="M401 737q155 0 265 -109.5t110 -265.5q0 -157 -109.5 -267t-265.5 -110t-266.5 110t-110.5 267q0 156 110.5 265.5t266.5 109.5zM401 681q-133 0 -227 -93.5t-94 -226.5t93.5 -226.5t227.5 -93.5q133 0 226 93t93 227q0 133 -93 226.5t-226 93.5zM317 452v-142
q0 -59 20.5 -81t60.5 -22q75 0 77 81h70q2 -62 -34 -99.5t-104 -37.5h-5q-23 0 -36.5 1t-39 10t-40.5 25.5t-27 51.5t-12 84v101q0 82 34.5 126.5t121.5 44.5q72 0 104.5 -31.5t30.5 -96.5h-70q0 27 -6 43t-20 21.5t-20.5 6.5t-22.5 1q-41 0 -61.5 -19.5t-20.5 -67.5z" />
    <glyph glyph-name="ordfeminine" unicode="&#xaa;" horiz-adv-x="300" 
d="M205 579q-71 -1 -91 -10q-30 -14 -30 -51q0 -55 48 -55q79 0 73 116zM206 428v44h-2q-21 -50 -87 -50q-50 0 -74.5 27t-24.5 73q0 103 187 98q1 22 -2 36.5t-17 27t-41 12.5q-28 0 -43.5 -13t-13.5 -37h-63q4 91 122 91q124 0 124 -91v-146q0 -32 7 -72h-72z" />
    <glyph glyph-name="guillemotleft" unicode="&#xab;" horiz-adv-x="444" 
d="M121 77l-90 193l93 196h76l-79 -196l78 -193h-78zM293 77l-90 193l93 196h76l-79 -196l78 -193h-78z" />
    <glyph glyph-name="logicalnot" unicode="&#xac;" 
d="M395 117v205h-352v62h414v-267h-62z" />
    <glyph glyph-name="uni00AD" unicode="&#xad;" horiz-adv-x="333" 
d="M56 234v77h220v-77h-220z" />
    <glyph glyph-name="registered" unicode="&#xae;" horiz-adv-x="800" 
d="M401 737q155 0 265 -109.5t110 -265.5q0 -157 -109.5 -267t-265.5 -110t-266.5 110t-110.5 267q0 156 110.5 265.5t266.5 109.5zM401 681q-133 0 -227 -93.5t-94 -226.5t93.5 -226.5t227.5 -93.5q133 0 226 93t93 227q0 133 -93 226.5t-226 93.5zM330 337v-193h-70v433
h172q59 0 90 -32t31 -76q0 -38 -26 -65t-68 -35v-2q42 -5 58 -26t18 -84q4 -78 17 -113h-69q-8 14 -11 34t-4.5 57t-2.5 53q-5 49 -65 49h-70zM330 529v-136h90q31 0 47 20t16 50q0 27 -15.5 46.5t-47.5 19.5h-90z" />
    <glyph glyph-name="macron" unicode="&#xaf;" horiz-adv-x="278" 
d="M1 664h276v-56h-276v56z" />
    <glyph glyph-name="degree" unicode="&#xb0;" horiz-adv-x="400" 
d="M350 555q0 -62 -44 -106t-106 -44t-106 44t-44 106q-1 61 43.5 105.5t106.5 44.5t106 -44.5t44 -105.5zM288 555q0 36 -26 62t-63 26q-36 0 -62 -26t-25 -62q0 -37 25.5 -62.5t62.5 -25.5q36 0 62 25.5t26 62.5z" />
    <glyph glyph-name="plusminus" unicode="&#xb1;" 
d="M219 343v162h62v-162h176v-62h-176v-162h-62v162h-176v62h176zM43 0v62h414v-62h-414z" />
    <glyph glyph-name="twosuperior" unicode="&#xb2;" horiz-adv-x="266" 
d="M256 282h-243v53q24 30 57.5 71t46.5 57t30 39.5t22.5 36t10 28t4.5 32.5q0 22 -14 36t-42 14q-44 0 -42 -63h-71q-5 50 24 84.5t85 34.5q68 0 99 -26.5t31 -82.5q0 -34 -12 -64t-24.5 -47.5t-54.5 -67t-68 -82.5h161v-53z" />
    <glyph glyph-name="threesuperior" unicode="&#xb3;" horiz-adv-x="266" 
d="M95 476v48q41 -3 64 15t23 54q0 62 -57 62q-55 0 -53 -64h-63q-4 54 25 84t91 30q59 0 93 -27.5t34 -80.5q0 -28 -9.5 -47t-29 -29.5t-28.5 -13.5t-27 -7v-2q104 -12 104 -105q0 -59 -38.5 -89.5t-105.5 -30.5q-119 0 -117 119v5h64q1 -33 12.5 -50.5t45.5 -17.5
q69 0 69 65q0 46 -22 64t-75 18z" />
    <glyph glyph-name="acute" unicode="&#xb4;" horiz-adv-x="278" 
d="M149 722h109l-131 -141h-67z" />
    <glyph glyph-name="mu" unicode="&#xb5;" 
d="M342 0v61h-3q-42 -71 -128 -71q-37 0 -54 10v-191h-82v696h82v-350q0 -47 22 -74.5t64 -27.5q38 0 68.5 29.5t30.5 87.5v335h82v-400q0 -47 5 -105h-87z" />
    <glyph glyph-name="paragraph" unicode="&#xb6;" horiz-adv-x="440" 
d="M165 -121v459q-62 -1 -109.5 56t-47.5 134q0 22 3.5 44t15 50.5t30.5 49.5t53.5 35.5t80.5 14.5h196v-843h-70v776h-82v-776h-70z" />
    <glyph glyph-name="periodcentered" unicode="&#xb7;" horiz-adv-x="222" 
d="M158 305v-104h-94v104h94z" />
    <glyph glyph-name="cedilla" unicode="&#xb8;" horiz-adv-x="278" 
d="M82 -105l-17 19l63 86h48l-46 -60l2 -2q16 6 30 6q35 0 59 -20.5t24 -55.5q0 -47 -35.5 -70t-80.5 -23t-99 22l17 40q41 -15 65 -15q22 0 39.5 9.5t17.5 30.5q0 20 -14 30.5t-35 10.5q-6 0 -38 -8z" />
    <glyph glyph-name="onesuperior" unicode="&#xb9;" horiz-adv-x="266" 
d="M188 698v-416h-70v349l-68 -42v59q24 10 76 50h62z" />
    <glyph glyph-name="ordmasculine" unicode="&#xba;" horiz-adv-x="300" 
d="M150 463q40 0 52 28t12 105q0 59 -15.5 79.5t-48.5 20.5t-48.5 -20.5t-15.5 -79.5q0 -77 12 -105t52 -28zM150 422q-62 0 -96 30.5t-34 122.5q0 79 26 120.5t104 41.5t104 -41.5t26 -120.5q0 -48 -10 -80t-29.5 -47t-40.5 -20.5t-50 -5.5z" />
    <glyph glyph-name="guillemotright" unicode="&#xbb;" horiz-adv-x="444" 
d="M151 77h-78l78 193l-79 196h76l93 -196zM323 77h-78l78 193l-79 196h76l93 -196z" />
    <glyph glyph-name="onequarter" unicode="&#xbc;" horiz-adv-x="666" 
d="M508 98h-157v51l128 267h99v-262h53v-56h-53v-98h-70v98zM415 154h93v200h-2zM188 698v-416h-70v349l-68 -42v59q24 10 76 50h62zM128 -27h-63l437 749h62z" />
    <glyph glyph-name="onehalf" unicode="&#xbd;" horiz-adv-x="666" 
d="M628 0h-243v53q24 30 57.5 71t46.5 57t30 39.5t22.5 36t10 28t4.5 32.5q0 22 -14 36t-42 14q-44 0 -42 -63h-71q-5 50 24 84.5t85 34.5q68 0 99 -26.5t31 -82.5q0 -34 -12 -64t-24.5 -47.5t-54.5 -67t-68 -82.5h161v-53zM158 698v-416h-70v349l-68 -42v59q24 10 76 50h62
zM98 -27h-63l437 749h62z" />
    <glyph glyph-name="threequarters" unicode="&#xbe;" horiz-adv-x="666" 
d="M523 98h-157v51l128 267h99v-262h53v-56h-53v-98h-70v98zM430 154h93v200h-2zM100 476v48q41 -3 64 15t23 54q0 62 -57 62q-55 0 -53 -64h-63q-4 54 25 84t91 30q59 0 93 -27.5t34 -80.5q0 -28 -9.5 -47t-29 -29.5t-28.5 -13.5t-27 -7v-2q104 -12 104 -105
q0 -59 -38.5 -89.5t-105.5 -30.5q-119 0 -117 119v5h64q1 -33 12.5 -50.5t45.5 -17.5q69 0 69 65q0 46 -22 64t-75 18zM163 -27h-63l437 749h62z" />
    <glyph glyph-name="questiondown" unicode="&#xbf;" horiz-adv-x="444" 
d="M266 348v-114q0 -29 -19 -62t-41.5 -59.5t-41.5 -68t-19 -85.5q0 -38 19 -68t56 -30q77 0 74 139h94q8 -206 -174 -206q-76 0 -119.5 45t-43.5 122q0 56 21 105t45.5 76t45.5 58t21 55v93h82zM272 531v-104h-94v104h94z" />
    <glyph glyph-name="Agrave" unicode="&#xc0;" horiz-adv-x="611" 
d="M15 0l229 722h117l235 -722h-103l-52 172h-279l-54 -172h-93zM416 252l-116 385h-2l-113 -385h231zM187 939h109l89 -141h-67z" />
    <glyph glyph-name="Aacute" unicode="&#xc1;" horiz-adv-x="611" 
d="M15 0l229 722h117l235 -722h-103l-52 172h-279l-54 -172h-93zM416 252l-116 385h-2l-113 -385h231zM316 939h109l-131 -141h-67z" />
    <glyph glyph-name="Acircumflex" unicode="&#xc2;" horiz-adv-x="611" 
d="M15 0l229 722h117l235 -722h-103l-52 172h-279l-54 -172h-93zM416 252l-116 385h-2l-113 -385h231zM372 798l-66 94l-66 -94h-80l100 141h92l100 -141h-80z" />
    <glyph glyph-name="Atilde" unicode="&#xc3;" horiz-adv-x="611" 
d="M15 0l229 722h117l235 -722h-103l-52 172h-279l-54 -172h-93zM416 252l-116 385h-2l-113 -385h231zM425 911h51q-5 -45 -31 -76q-28 -33 -73 -33q-19 0 -72 19q-48 19 -72 19q-17 0 -30.5 -14t-15.5 -31h-46q5 49 31 78.5t73 29.5q29 0 75 -18q44 -19 59 -19q47 0 51 45z
" />
    <glyph glyph-name="Adieresis" unicode="&#xc4;" horiz-adv-x="611" 
d="M15 0l229 722h117l235 -722h-103l-52 172h-279l-54 -172h-93zM416 252l-116 385h-2l-113 -385h231zM265 911v-104h-94v104h94zM441 911v-104h-94v104h94z" />
    <glyph glyph-name="Aring" unicode="&#xc5;" horiz-adv-x="611" 
d="M15 0l229 722h117l235 -722h-103l-52 172h-279l-54 -172h-93zM416 252l-116 385h-2l-113 -385h231zM306 787q-42 0 -71.5 29.5t-29.5 71.5t29.5 71.5t71.5 29.5t71.5 -29.5t29.5 -71.5t-29.5 -71.5t-71.5 -29.5zM366 888q0 25 -18 42.5t-42 17.5q-25 0 -42.5 -17.5
t-17.5 -42.5q0 -24 17.5 -42t42.5 -18q24 0 42 18t18 42z" />
    <glyph glyph-name="AE" unicode="&#xc6;" horiz-adv-x="833" 
d="M112 0h-97l317 722h448v-80h-297l31 -232h258v-80h-244l35 -250h227v-80h-306l-25 172h-274zM448 252l-55 396h-2l-169 -396h226z" />
    <glyph glyph-name="Ccedilla" unicode="&#xc7;" horiz-adv-x="556" 
d="M494 523h-95q2 77 -21 105q-13 15 -37.5 23t-43.5 8q-34 0 -60.5 -12.5t-36.5 -24t-12 -19.5q0 -1 -2.5 -5.5t-4.5 -9.5t-4.5 -16.5t-4.5 -26t-3.5 -39t-1.5 -53.5v-193q0 -64 9.5 -105.5t29 -60.5t40 -25.5t50.5 -6.5q15 0 30 4.5t36 17.5t34.5 46.5t13.5 82.5h95
q1 -63 -15.5 -109t-38 -68t-54.5 -34.5t-51.5 -14.5t-41.5 -2l-35 -45l2 -2q16 6 30 6q35 0 59 -20.5t24 -55.5q0 -47 -35.5 -70t-80.5 -23t-99 22l17 40q41 -15 65 -15q22 0 39.5 9.5t17.5 30.5q0 20 -14 30.5t-35 10.5q-6 0 -38 -8l-17 19l53 73q-29 2 -52 8.5t-49 25.5
t-43 48.5t-28.5 81t-11.5 120.5v204q0 145 59 203.5t173 58.5q105 0 150.5 -53.5t38.5 -160.5z" />
    <glyph glyph-name="Egrave" unicode="&#xc8;" 
d="M459 0h-378v722h372v-80h-280v-232h260v-80h-260v-250h286v-80zM131 939h109l89 -141h-67z" />
    <glyph glyph-name="Eacute" unicode="&#xc9;" 
d="M459 0h-378v722h372v-80h-280v-232h260v-80h-260v-250h286v-80zM260 939h109l-131 -141h-67z" />
    <glyph glyph-name="Ecircumflex" unicode="&#xca;" 
d="M459 0h-378v722h372v-80h-280v-232h260v-80h-260v-250h286v-80zM316 798l-66 94l-66 -94h-80l100 141h92l100 -141h-80z" />
    <glyph glyph-name="Edieresis" unicode="&#xcb;" 
d="M459 0h-378v722h372v-80h-280v-232h260v-80h-260v-250h286v-80zM209 911v-104h-94v104h94zM385 911v-104h-94v104h94z" />
    <glyph glyph-name="Igrave" unicode="&#xcc;" horiz-adv-x="278" 
d="M185 722v-722h-92v722h92zM20 939h109l89 -141h-67z" />
    <glyph glyph-name="Iacute" unicode="&#xcd;" horiz-adv-x="278" 
d="M185 722v-722h-92v722h92zM149 939h109l-131 -141h-67z" />
    <glyph glyph-name="Icircumflex" unicode="&#xce;" horiz-adv-x="278" 
d="M185 722v-722h-92v722h92zM205 798l-66 94l-66 -94h-80l100 141h92l100 -141h-80z" />
    <glyph glyph-name="Idieresis" unicode="&#xcf;" horiz-adv-x="278" 
d="M185 722v-722h-92v722h92zM98 911v-104h-94v104h94zM274 911v-104h-94v104h94z" />
    <glyph glyph-name="Eth" unicode="&#xd0;" horiz-adv-x="611" 
d="M83 0v366h-70v56h70v300h222q143 0 194 -110q32 -67 32 -228q0 -221 -44 -291q-59 -93 -238 -93h-166zM175 366v-286h87q98 0 136.5 46t38.5 170v146q0 108 -34 154t-107 46h-121v-220h151v-56h-151z" />
    <glyph glyph-name="Ntilde" unicode="&#xd1;" horiz-adv-x="667" 
d="M499 722h82v-722h-126l-285 626h-2v-626h-82v722h130l281 -618h2v618zM453 911h51q-5 -45 -31 -76q-28 -33 -73 -33q-19 0 -72 19q-47 19 -72 19q-17 0 -30.5 -14t-15.5 -31h-46q5 49 31 78.5t73 29.5q29 0 75 -18q44 -19 59 -19q47 0 51 45z" />
    <glyph glyph-name="Ograve" unicode="&#xd2;" horiz-adv-x="611" 
d="M305 -15q-117 0 -172 65.5t-55 213.5v237q0 111 57.5 173.5t169.5 62.5t169.5 -62.5t57.5 -173.5v-237q0 -148 -55 -213.5t-172 -65.5zM305 62q69 0 101 42.5t32 155.5v244q0 43 -11.5 74t-26.5 46.5t-36 24t-33.5 10t-25.5 1.5t-25.5 -1.5t-33.5 -10t-36 -24
t-26.5 -46.5t-11.5 -74v-244q0 -113 32 -155.5t101 -42.5zM187 939h109l89 -141h-67z" />
    <glyph glyph-name="Oacute" unicode="&#xd3;" horiz-adv-x="611" 
d="M305 -15q-117 0 -172 65.5t-55 213.5v237q0 111 57.5 173.5t169.5 62.5t169.5 -62.5t57.5 -173.5v-237q0 -148 -55 -213.5t-172 -65.5zM305 62q69 0 101 42.5t32 155.5v244q0 43 -11.5 74t-26.5 46.5t-36 24t-33.5 10t-25.5 1.5t-25.5 -1.5t-33.5 -10t-36 -24
t-26.5 -46.5t-11.5 -74v-244q0 -113 32 -155.5t101 -42.5zM316 939h109l-131 -141h-67z" />
    <glyph glyph-name="Ocircumflex" unicode="&#xd4;" horiz-adv-x="611" 
d="M305 -15q-117 0 -172 65.5t-55 213.5v237q0 111 57.5 173.5t169.5 62.5t169.5 -62.5t57.5 -173.5v-237q0 -148 -55 -213.5t-172 -65.5zM305 62q69 0 101 42.5t32 155.5v244q0 43 -11.5 74t-26.5 46.5t-36 24t-33.5 10t-25.5 1.5t-25.5 -1.5t-33.5 -10t-36 -24
t-26.5 -46.5t-11.5 -74v-244q0 -113 32 -155.5t101 -42.5zM372 798l-66 94l-66 -94h-80l100 141h92l100 -141h-80z" />
    <glyph glyph-name="Otilde" unicode="&#xd5;" horiz-adv-x="611" 
d="M305 -15q-117 0 -172 65.5t-55 213.5v237q0 111 57.5 173.5t169.5 62.5t169.5 -62.5t57.5 -173.5v-237q0 -148 -55 -213.5t-172 -65.5zM305 62q69 0 101 42.5t32 155.5v244q0 43 -11.5 74t-26.5 46.5t-36 24t-33.5 10t-25.5 1.5t-25.5 -1.5t-33.5 -10t-36 -24
t-26.5 -46.5t-11.5 -74v-244q0 -113 32 -155.5t101 -42.5zM425 911h51q-5 -45 -31 -76q-28 -33 -73 -33q-19 0 -72 19q-48 19 -72 19q-17 0 -30.5 -14t-15.5 -31h-46q5 49 31 78.5t73 29.5q29 0 75 -18q44 -19 59 -19q47 0 51 45z" />
    <glyph glyph-name="Odieresis" unicode="&#xd6;" horiz-adv-x="611" 
d="M305 -15q-117 0 -172 65.5t-55 213.5v237q0 111 57.5 173.5t169.5 62.5t169.5 -62.5t57.5 -173.5v-237q0 -148 -55 -213.5t-172 -65.5zM305 62q69 0 101 42.5t32 155.5v244q0 43 -11.5 74t-26.5 46.5t-36 24t-33.5 10t-25.5 1.5t-25.5 -1.5t-33.5 -10t-36 -24
t-26.5 -46.5t-11.5 -74v-244q0 -113 32 -155.5t101 -42.5zM265 911v-104h-94v104h94zM441 911v-104h-94v104h94z" />
    <glyph glyph-name="multiply" unicode="&#xd7;" 
d="M206 253l-163 163l44 44l163 -163l163 163l44 -44l-163 -163l163 -163l-44 -44l-163 163l-163 -163l-44 44z" />
    <glyph glyph-name="Oslash" unicode="&#xd8;" horiz-adv-x="611" 
d="M437 520l-249 -380q27 -78 117 -78q69 0 101 42.5t32 155.5v244q0 11 -1 16zM176 196l250 383q-29 81 -121 81q-13 0 -25.5 -1.5t-33.5 -10t-36 -24t-26.5 -46.5t-11.5 -74v-244q0 -40 4 -64zM41 -10l67 102q-30 62 -30 172v237q0 111 57.5 173.5t169.5 62.5
q120 0 178 -71l51 79l35 -23l-62 -95q25 -50 25 -126v-237q0 -148 -55 -213.5t-172 -65.5q-116 0 -173 69l-57 -87z" />
    <glyph glyph-name="Ugrave" unicode="&#xd9;" horiz-adv-x="611" 
d="M78 264v458h92v-462q0 -113 32.5 -155.5t102.5 -42.5t102.5 42.5t32.5 155.5v462h92v-458q0 -148 -55 -213.5t-172 -65.5t-172 65.5t-55 213.5zM187 939h109l89 -141h-67z" />
    <glyph glyph-name="Uacute" unicode="&#xda;" horiz-adv-x="611" 
d="M78 264v458h92v-462q0 -113 32.5 -155.5t102.5 -42.5t102.5 42.5t32.5 155.5v462h92v-458q0 -148 -55 -213.5t-172 -65.5t-172 65.5t-55 213.5zM316 939h109l-131 -141h-67z" />
    <glyph glyph-name="Ucircumflex" unicode="&#xdb;" horiz-adv-x="611" 
d="M78 264v458h92v-462q0 -113 32.5 -155.5t102.5 -42.5t102.5 42.5t32.5 155.5v462h92v-458q0 -148 -55 -213.5t-172 -65.5t-172 65.5t-55 213.5zM372 798l-66 94l-66 -94h-80l100 141h92l100 -141h-80z" />
    <glyph glyph-name="Udieresis" unicode="&#xdc;" horiz-adv-x="611" 
d="M78 264v458h92v-462q0 -113 32.5 -155.5t102.5 -42.5t102.5 42.5t32.5 155.5v462h92v-458q0 -148 -55 -213.5t-172 -65.5t-172 65.5t-55 213.5zM265 911v-104h-94v104h94zM441 911v-104h-94v104h94z" />
    <glyph glyph-name="Yacute" unicode="&#xdd;" 
d="M252 373l146 349h93l-197 -447v-275h-92v275l-194 447h103zM260 939h109l-131 -141h-67z" />
    <glyph glyph-name="Thorn" unicode="&#xde;" horiz-adv-x="556" 
d="M185 520v-244h101q19 0 37 4t40.5 15t36.5 37.5t14 66.5q0 38 -12.5 64.5t-31.5 37.5t-33 15t-25 4h-127zM93 0v722h92v-122h122q201 0 201 -206q0 -58 -20.5 -99.5t-53.5 -61.5t-64.5 -28.5t-63.5 -8.5h-121v-196h-92z" />
    <glyph glyph-name="germandbls" unicode="&#xdf;" horiz-adv-x="556" 
d="M501 155q0 -20 -2 -37.5t-11 -42.5t-24.5 -42.5t-45.5 -30.5t-71 -13q-149 0 -149 136h86q-2 -32 14 -50.5t48 -18.5q69 0 69 92q0 39 -26 70t-56.5 49.5t-56.5 52t-26 77.5q0 32 52 90q51 59 51 91q0 45 -24.5 68.5t-68.5 23.5q-30 0 -51.5 -8.5t-32.5 -19t-16.5 -30
t-6.5 -32.5t-1 -34v-546h-82v579q0 45 21 78t52.5 49t60.5 23.5t54 7.5q83 0 135 -35t52 -116q0 -53 -53 -106q-3 -3 -15.5 -14.5t-16.5 -16t-11.5 -13.5t-10 -17t-2.5 -17q0 -19 17 -38t41 -37t48.5 -39.5t41.5 -56t17 -76.5z" />
    <glyph glyph-name="agrave" unicode="&#xe0;" 
d="M330 251q-89 -1 -118 -10q-65 -20 -65 -91q0 -40 20 -66.5t59 -26.5q114 0 104 194zM332 0v73h-2q-36 -83 -127 -83q-76 0 -107 43.5t-31 122.5q0 44 17.5 75t42 47t63.5 24.5t69.5 10t72.5 0.5q0 20 0.5 40t-4 38t-13 32t-26 22t-42.5 8q-41 0 -62 -25t-17 -65h-89
q3 82 45.5 117t125.5 35q91 0 127.5 -40.5t36.5 -111.5v-243q0 -55 10 -120h-90zM131 722h109l89 -141h-67z" />
    <glyph glyph-name="aacute" unicode="&#xe1;" 
d="M330 251q-89 -1 -118 -10q-65 -20 -65 -91q0 -40 20 -66.5t59 -26.5q114 0 104 194zM332 0v73h-2q-36 -83 -127 -83q-76 0 -107 43.5t-31 122.5q0 44 17.5 75t42 47t63.5 24.5t69.5 10t72.5 0.5q0 20 0.5 40t-4 38t-13 32t-26 22t-42.5 8q-41 0 -62 -25t-17 -65h-89
q3 82 45.5 117t125.5 35q91 0 127.5 -40.5t36.5 -111.5v-243q0 -55 10 -120h-90zM260 722h109l-131 -141h-67z" />
    <glyph glyph-name="acircumflex" unicode="&#xe2;" 
d="M330 251q-89 -1 -118 -10q-65 -20 -65 -91q0 -40 20 -66.5t59 -26.5q114 0 104 194zM332 0v73h-2q-36 -83 -127 -83q-76 0 -107 43.5t-31 122.5q0 44 17.5 75t42 47t63.5 24.5t69.5 10t72.5 0.5q0 20 0.5 40t-4 38t-13 32t-26 22t-42.5 8q-41 0 -62 -25t-17 -65h-89
q3 82 45.5 117t125.5 35q91 0 127.5 -40.5t36.5 -111.5v-243q0 -55 10 -120h-90zM316 581l-66 94l-66 -94h-80l100 141h92l100 -141h-80z" />
    <glyph glyph-name="atilde" unicode="&#xe3;" 
d="M330 251q-89 -1 -118 -10q-65 -20 -65 -91q0 -40 20 -66.5t59 -26.5q114 0 104 194zM332 0v73h-2q-36 -83 -127 -83q-76 0 -107 43.5t-31 122.5q0 44 17.5 75t42 47t63.5 24.5t69.5 10t72.5 0.5q0 20 0.5 40t-4 38t-13 32t-26 22t-42.5 8q-41 0 -62 -25t-17 -65h-89
q3 82 45.5 117t125.5 35q91 0 127.5 -40.5t36.5 -111.5v-243q0 -55 10 -120h-90zM369 694h51q-5 -45 -31 -76q-28 -33 -73 -33q-19 0 -72 19q-48 19 -72 19q-17 0 -30.5 -14t-15.5 -31h-46q5 49 31 78.5t73 29.5q29 0 75 -18q44 -19 59 -19q47 0 51 45z" />
    <glyph glyph-name="adieresis" unicode="&#xe4;" 
d="M330 251q-89 -1 -118 -10q-65 -20 -65 -91q0 -40 20 -66.5t59 -26.5q114 0 104 194zM332 0v73h-2q-36 -83 -127 -83q-76 0 -107 43.5t-31 122.5q0 44 17.5 75t42 47t63.5 24.5t69.5 10t72.5 0.5q0 20 0.5 40t-4 38t-13 32t-26 22t-42.5 8q-41 0 -62 -25t-17 -65h-89
q3 82 45.5 117t125.5 35q91 0 127.5 -40.5t36.5 -111.5v-243q0 -55 10 -120h-90zM209 694v-104h-94v104h94zM385 694v-104h-94v104h94z" />
    <glyph glyph-name="aring" unicode="&#xe5;" 
d="M330 251q-89 -1 -118 -10q-65 -20 -65 -91q0 -40 20 -66.5t59 -26.5q114 0 104 194zM332 0v73h-2q-36 -83 -127 -83q-76 0 -107 43.5t-31 122.5q0 44 17.5 75t42 47t63.5 24.5t69.5 10t72.5 0.5q0 20 0.5 40t-4 38t-13 32t-26 22t-42.5 8q-41 0 -62 -25t-17 -65h-89
q3 82 45.5 117t125.5 35q91 0 127.5 -40.5t36.5 -111.5v-243q0 -55 10 -120h-90zM250 570q-42 0 -71.5 29.5t-29.5 71.5t29.5 71.5t71.5 29.5t71.5 -29.5t29.5 -71.5t-29.5 -71.5t-71.5 -29.5zM310 671q0 25 -18 42.5t-42 17.5q-25 0 -42.5 -17.5t-17.5 -42.5
q0 -24 17.5 -42t42.5 -18q24 0 42 18t18 42z" />
    <glyph glyph-name="ae" unicode="&#xe6;" horiz-adv-x="778" 
d="M428 302h196q4 151 -100 151q-96 0 -96 -151zM711 240h-283q3 -89 12 -119q20 -64 85 -64q89 0 94 105h89q0 -33 -6 -58.5t-23.5 -53.5t-58 -44t-100.5 -16q-50 0 -90.5 23t-54.5 68q-39 -91 -159 -91q-72 0 -110.5 39.5t-38.5 111.5q0 31 7.5 55t17.5 40t30 27.5t35 18
t43.5 10.5t45 5t49 2.5t46.5 2.5v51q0 51 -22 75.5t-72 24.5q-41 0 -62 -25t-17 -65h-89q3 82 45.5 117t125.5 35q55 0 92 -15t52 -58h2q11 37 47.5 55t80.5 18q21 0 36.5 -1.5t38 -7t38 -16.5t32.5 -31.5t26.5 -48.5t14.5 -71.5t1 -98.5zM341 240h-15q-26 0 -39.5 -0.5
t-37 -2.5t-36.5 -8.5t-27.5 -17t-21 -28.5t-6.5 -42q0 -39 19.5 -61.5t59.5 -22.5q49 0 79 37.5t25 145.5z" />
    <glyph glyph-name="ccedilla" unicode="&#xe7;" 
d="M421 343h-85q1 56 -20 80.5t-50 24.5q-52 0 -79 -35.5t-27 -132.5q0 -126 22 -174.5t84 -48.5q24 0 49.5 26t23.5 85h86q1 -47 -13 -82.5t-37.5 -54.5t-47 -28.5t-47.5 -11.5l-39 -51l2 -2q16 6 30 6q35 0 59 -20.5t24 -55.5q0 -47 -35.5 -70t-80.5 -23t-99 22l17 40
q41 -15 65 -15q22 0 39.5 9.5t17.5 30.5q0 20 -14 30.5t-35 10.5q-6 0 -38 -8l-17 19l57 77q-37 3 -63.5 15.5t-49.5 39.5t-34.5 77t-11.5 122q0 51 3 85.5t14.5 72.5t31.5 60.5t56 37t87 14.5q77 0 118 -44t37 -128z" />
    <glyph glyph-name="egrave" unicode="&#xe8;" 
d="M152 288h197q0 102 -24.5 133.5t-76.5 31.5q-45 0 -70 -34.5t-26 -130.5zM436 226h-284q0 -99 24.5 -134t77.5 -35q40 0 63 27.5t25 68.5h90q-1 -82 -47.5 -122.5t-128.5 -40.5q-45 0 -76 9t-59.5 34.5t-42.5 78t-14 133.5q0 51 3 85.5t14.5 72.5t31.5 60.5t56 37
t87 14.5q104 0 142 -57.5t38 -188.5v-43zM131 722h109l89 -141h-67z" />
    <glyph glyph-name="eacute" unicode="&#xe9;" 
d="M152 288h197q0 102 -24.5 133.5t-76.5 31.5q-45 0 -70 -34.5t-26 -130.5zM436 226h-284q0 -99 24.5 -134t77.5 -35q40 0 63 27.5t25 68.5h90q-1 -82 -47.5 -122.5t-128.5 -40.5q-45 0 -76 9t-59.5 34.5t-42.5 78t-14 133.5q0 51 3 85.5t14.5 72.5t31.5 60.5t56 37
t87 14.5q104 0 142 -57.5t38 -188.5v-43zM260 722h109l-131 -141h-67z" />
    <glyph glyph-name="ecircumflex" unicode="&#xea;" 
d="M152 288h197q0 102 -24.5 133.5t-76.5 31.5q-45 0 -70 -34.5t-26 -130.5zM436 226h-284q0 -99 24.5 -134t77.5 -35q40 0 63 27.5t25 68.5h90q-1 -82 -47.5 -122.5t-128.5 -40.5q-45 0 -76 9t-59.5 34.5t-42.5 78t-14 133.5q0 51 3 85.5t14.5 72.5t31.5 60.5t56 37
t87 14.5q104 0 142 -57.5t38 -188.5v-43zM316 581l-66 94l-66 -94h-80l100 141h92l100 -141h-80z" />
    <glyph glyph-name="edieresis" unicode="&#xeb;" 
d="M152 288h197q0 102 -24.5 133.5t-76.5 31.5q-45 0 -70 -34.5t-26 -130.5zM436 226h-284q0 -99 24.5 -134t77.5 -35q40 0 63 27.5t25 68.5h90q-1 -82 -47.5 -122.5t-128.5 -40.5q-45 0 -76 9t-59.5 34.5t-42.5 78t-14 133.5q0 51 3 85.5t14.5 72.5t31.5 60.5t56 37
t87 14.5q104 0 142 -57.5t38 -188.5v-43zM209 694v-104h-94v104h94zM385 694v-104h-94v104h94z" />
    <glyph glyph-name="igrave" unicode="&#xec;" horiz-adv-x="222" 
d="M152 0h-82v505h82v-505zM-8 722h109l89 -141h-67z" />
    <glyph glyph-name="iacute" unicode="&#xed;" horiz-adv-x="222" 
d="M152 0h-82v505h82v-505zM121 722h109l-131 -141h-67z" />
    <glyph glyph-name="icircumflex" unicode="&#xee;" horiz-adv-x="222" 
d="M152 0h-82v505h82v-505zM177 581l-66 94l-66 -94h-80l100 141h92l100 -141h-80z" />
    <glyph glyph-name="idieresis" unicode="&#xef;" horiz-adv-x="222" 
d="M152 0h-82v505h82v-505zM70 694v-104h-94v104h94zM246 694v-104h-94v104h94z" />
    <glyph glyph-name="eth" unicode="&#xf0;" 
d="M140 570l-31 30l83 49q-42 35 -84 57l55 47q50 -25 97 -64l93 55l30 -33l-91 -53q78 -79 114 -171.5t36 -246.5q0 -79 -14 -131t-42.5 -76.5t-59.5 -33.5t-76 -9t-76 9t-59.5 33.5t-42.5 76.5t-14 131q0 50 3 84t13.5 71t29.5 59t53 36.5t81 14.5q52 0 89 -37l2 2
q-24 70 -101 151zM250 56q62 0 84 47.5t22 170.5q0 95 -27 130t-79 35t-79 -35t-27 -130q0 -123 22 -170.5t84 -47.5z" />
    <glyph glyph-name="ntilde" unicode="&#xf1;" 
d="M428 0h-82v350q0 98 -89 98q-103 0 -103 -149v-299h-82v400q0 47 -5 105h87v-65h4q24 42 54.5 58.5t80.5 16.5q76 0 105.5 -41.5t29.5 -123.5v-350zM369 694h51q-5 -45 -31 -76q-28 -33 -73 -33q-19 0 -72 19q-48 19 -72 19q-17 0 -30.5 -14t-15.5 -31h-46q5 49 31 78.5
t73 29.5q29 0 75 -18q44 -19 59 -19q47 0 51 45z" />
    <glyph glyph-name="ograve" unicode="&#xf2;" 
d="M250 57q62 0 84 48.5t22 174.5q0 97 -27 132.5t-79 35.5t-79 -35.5t-27 -132.5q0 -126 22 -174.5t84 -48.5zM250 -10q-45 0 -76 9t-59.5 34.5t-42.5 78t-14 133.5q0 51 3 85.5t14.5 72.5t31.5 60.5t56 37t87 14.5t87 -14.5t56 -37t31.5 -60.5t14.5 -72.5t3 -85.5
q0 -81 -14 -133.5t-42.5 -78t-59.5 -34.5t-76 -9zM131 722h109l89 -141h-67z" />
    <glyph glyph-name="oacute" unicode="&#xf3;" 
d="M250 57q62 0 84 48.5t22 174.5q0 97 -27 132.5t-79 35.5t-79 -35.5t-27 -132.5q0 -126 22 -174.5t84 -48.5zM250 -10q-45 0 -76 9t-59.5 34.5t-42.5 78t-14 133.5q0 51 3 85.5t14.5 72.5t31.5 60.5t56 37t87 14.5t87 -14.5t56 -37t31.5 -60.5t14.5 -72.5t3 -85.5
q0 -81 -14 -133.5t-42.5 -78t-59.5 -34.5t-76 -9zM260 722h109l-131 -141h-67z" />
    <glyph glyph-name="ocircumflex" unicode="&#xf4;" 
d="M250 57q62 0 84 48.5t22 174.5q0 97 -27 132.5t-79 35.5t-79 -35.5t-27 -132.5q0 -126 22 -174.5t84 -48.5zM250 -10q-45 0 -76 9t-59.5 34.5t-42.5 78t-14 133.5q0 51 3 85.5t14.5 72.5t31.5 60.5t56 37t87 14.5t87 -14.5t56 -37t31.5 -60.5t14.5 -72.5t3 -85.5
q0 -81 -14 -133.5t-42.5 -78t-59.5 -34.5t-76 -9zM316 581l-66 94l-66 -94h-80l100 141h92l100 -141h-80z" />
    <glyph glyph-name="otilde" unicode="&#xf5;" 
d="M250 57q62 0 84 48.5t22 174.5q0 97 -27 132.5t-79 35.5t-79 -35.5t-27 -132.5q0 -126 22 -174.5t84 -48.5zM250 -10q-45 0 -76 9t-59.5 34.5t-42.5 78t-14 133.5q0 51 3 85.5t14.5 72.5t31.5 60.5t56 37t87 14.5t87 -14.5t56 -37t31.5 -60.5t14.5 -72.5t3 -85.5
q0 -81 -14 -133.5t-42.5 -78t-59.5 -34.5t-76 -9zM369 694h51q-5 -45 -31 -76q-28 -33 -73 -33q-19 0 -72 19q-48 19 -72 19q-17 0 -30.5 -14t-15.5 -31h-46q5 49 31 78.5t73 29.5q29 0 75 -18q44 -19 59 -19q47 0 51 45z" />
    <glyph glyph-name="odieresis" unicode="&#xf6;" 
d="M250 57q62 0 84 48.5t22 174.5q0 97 -27 132.5t-79 35.5t-79 -35.5t-27 -132.5q0 -126 22 -174.5t84 -48.5zM250 -10q-45 0 -76 9t-59.5 34.5t-42.5 78t-14 133.5q0 51 3 85.5t14.5 72.5t31.5 60.5t56 37t87 14.5t87 -14.5t56 -37t31.5 -60.5t14.5 -72.5t3 -85.5
q0 -81 -14 -133.5t-42.5 -78t-59.5 -34.5t-76 -9zM209 694v-104h-94v104h94zM385 694v-104h-94v104h94z" />
    <glyph glyph-name="divide" unicode="&#xf7;" 
d="M43 222v62h414v-62h-414zM297 506v-104h-94v104h94zM297 104v-104h-94v104h94z" />
    <glyph glyph-name="oslash" unicode="&#xf8;" 
d="M153 150l181 253q-24 45 -84 45q-52 0 -79 -35.5t-27 -132.5q0 -84 9 -130zM349 359l-182 -255q23 -47 83 -47q62 0 84 48.5t22 174.5q0 51 -7 79zM384 472l48 67l32 -20l-56 -78q34 -57 34 -196q0 -81 -14 -133.5t-42.5 -78t-59.5 -34.5t-76 -9q-93 0 -135 43l-48 -68
l-31 22l56 78q-34 62 -34 180q0 51 3 85.5t14.5 72.5t31.5 60.5t56 37t87 14.5q88 0 134 -43z" />
    <glyph glyph-name="ugrave" unicode="&#xf9;" 
d="M342 170v335h82v-400q0 -47 5 -105h-87v61h-3q-42 -71 -128 -71q-136 0 -136 130v385h82v-350q0 -47 22 -74.5t64 -27.5q38 0 68.5 29.5t30.5 87.5zM131 722h109l89 -141h-67z" />
    <glyph glyph-name="uacute" unicode="&#xfa;" 
d="M342 170v335h82v-400q0 -47 5 -105h-87v61h-3q-42 -71 -128 -71q-136 0 -136 130v385h82v-350q0 -47 22 -74.5t64 -27.5q38 0 68.5 29.5t30.5 87.5zM260 722h109l-131 -141h-67z" />
    <glyph glyph-name="ucircumflex" unicode="&#xfb;" 
d="M342 170v335h82v-400q0 -47 5 -105h-87v61h-3q-42 -71 -128 -71q-136 0 -136 130v385h82v-350q0 -47 22 -74.5t64 -27.5q38 0 68.5 29.5t30.5 87.5zM316 581l-66 94l-66 -94h-80l100 141h92l100 -141h-80z" />
    <glyph glyph-name="udieresis" unicode="&#xfc;" 
d="M342 170v335h82v-400q0 -47 5 -105h-87v61h-3q-42 -71 -128 -71q-136 0 -136 130v385h82v-350q0 -47 22 -74.5t64 -27.5q38 0 68.5 29.5t30.5 87.5zM209 694v-104h-94v104h94zM385 694v-104h-94v104h94z" />
    <glyph glyph-name="yacute" unicode="&#xfd;" horiz-adv-x="444" 
d="M103 505l121 -411h2l121 411h89l-229 -696h-85l57 191l-171 505h95zM232 722h109l-131 -141h-67z" />
    <glyph glyph-name="thorn" unicode="&#xfe;" 
d="M161 273q0 -102 8 -137q19 -79 84 -79q21 0 38 7t27.5 16.5t18 26.5t11.5 30.5t5.5 36t2 35t0.5 34.5q0 111 -19 158t-81 47q-22 0 -38.5 -8t-26.5 -23t-16.5 -31t-9 -38.5t-3.5 -38t-1 -36.5zM79 -191v913h82v-277h2q42 70 112 70q34 0 60.5 -9t44 -22t29.5 -36.5
t18.5 -43.5t10 -51.5t4 -53t0.5 -55.5q0 -80 -13.5 -133t-38.5 -78t-50.5 -34t-60.5 -9q-72 0 -115 61h-3v-242h-82z" />
    <glyph glyph-name="ydieresis" unicode="&#xff;" horiz-adv-x="444" 
d="M103 505l121 -411h2l121 411h89l-229 -696h-85l57 191l-171 505h95zM181 694v-104h-94v104h94zM357 694v-104h-94v104h94z" />
    <glyph glyph-name="dotlessi" unicode="&#x131;" horiz-adv-x="222" 
d="M152 0h-82v505h82v-505z" />
    <glyph glyph-name="Lslash" unicode="&#x141;" horiz-adv-x="444" 
d="M81 0v367l-71 -41l-22 39l93 54v303h92v-250l75 43l22 -39l-97 -56v-340h265v-80h-357z" />
    <glyph glyph-name="lslash" unicode="&#x142;" horiz-adv-x="222" 
d="M152 722v-253l79 46l20 -35l-99 -57v-423h-82v376l-79 -46l-20 35l99 57v300h82z" />
    <glyph glyph-name="OE" unicode="&#x152;" horiz-adv-x="833" 
d="M421 80v562h-132q-43 0 -68.5 -15.5t-40 -62.5t-14.5 -131v-160q0 -95 28 -144t103 -49h124zM793 722v-80h-280v-232h260v-80h-260v-250h286v-80h-477q-132 0 -191 62t-59 207v168q0 153 55.5 219t167.5 66h498z" />
    <glyph glyph-name="oe" unicode="&#x153;" horiz-adv-x="778" 
d="M439 288h197q0 53 -7 86.5t-22 49t-30.5 20t-41.5 4.5q-46 0 -70.5 -32t-25.5 -128zM723 226h-284q0 -99 24.5 -134t77.5 -35q40 0 63 27.5t25 68.5h90q-1 -82 -47.5 -122.5t-128.5 -40.5q-123 0 -153 80q-23 -45 -57 -62.5t-83 -17.5q-45 0 -76 9t-59.5 34.5t-42.5 78
t-14 133.5q0 51 3 85.5t14.5 72.5t31.5 60.5t56 37t87 14.5q54 0 95 -19.5t49 -64.5h2q33 84 147 84q104 0 142 -57.5t38 -188.5v-43zM250 57q62 0 84 48.5t22 174.5q0 97 -27 132.5t-79 35.5t-79 -35.5t-27 -132.5q0 -126 22 -174.5t84 -48.5z" />
    <glyph glyph-name="Scaron" unicode="&#x160;" horiz-adv-x="556" 
d="M61 215h91v-21q0 -68 35 -98.5t86 -30.5q129 0 129 117q0 44 -33.5 77t-81 57t-95 50t-81 70.5t-33.5 104.5q0 93 59 144.5t153 51.5q209 0 200 -211h-96q1 64 -24 97.5t-87 33.5q-47 0 -79 -26t-32 -80q0 -43 33.5 -76t81 -56.5t95 -50t81 -73t33.5 -109.5
q0 -106 -62.5 -153.5t-161.5 -47.5q-61 -1 -104 17.5t-63.5 42t-31 60t-12 58.5t-0.5 52zM344 939h80l-100 -141h-92l-100 141h80l66 -94z" />
    <glyph glyph-name="scaron" unicode="&#x161;" horiz-adv-x="444" 
d="M397 144q0 -79 -48 -116.5t-128 -37.5q-85 0 -130.5 40t-43.5 124h93q0 -97 84 -97q39 0 63 20t24 57q0 24 -26 44.5t-63 37t-74 36t-63 51.5t-26 74q0 23 7.5 44.5t25.5 44t54.5 36t86.5 13.5q73 0 119 -36t41 -107h-91q2 81 -79 81q-34 0 -56 -18t-22 -50
q0 -24 26 -43.5t63 -36t74 -35.5t63 -51t26 -75zM288 722h80l-100 -141h-92l-100 141h80l66 -94z" />
    <glyph glyph-name="Ydieresis" unicode="&#x178;" 
d="M252 373l146 349h93l-197 -447v-275h-92v275l-194 447h103zM209 911v-104h-94v104h94zM385 911v-104h-94v104h94z" />
    <glyph glyph-name="Zcaron" unicode="&#x17d;" 
d="M467 722v-92l-358 -550h366v-80h-451v104l350 536v2h-338v80h431zM316 939h80l-100 -141h-92l-100 141h80l66 -94z" />
    <glyph glyph-name="zcaron" unicode="&#x17e;" horiz-adv-x="389" 
d="M347 505v-75l-223 -363h230v-67h-319v77l220 359v2h-209v67h301zM261 722h80l-100 -141h-92l-100 141h80l66 -94z" />
    <glyph glyph-name="florin" unicode="&#x192;" horiz-adv-x="444" 
d="M34 -171l11 67q12 -1 21.5 -0.5t17 4.5t13 6.5t9.5 10.5t6.5 11.5t5 15.5t3.5 15.5t3.5 18t2.5 17.5l61 396h-91l11 62h89l13 80q4 23 8 41.5t15 44.5t27 43.5t43.5 30t62.5 12.5q8 0 23.5 -2t20.5 -2l-11 -67q-16 4 -25 4q-27 0 -46 -18t-25 -35t-9 -35l-16 -97h98
l-9 -62h-98l-67 -440q-7 -43 -24.5 -70t-44 -37.5t-48 -13t-51.5 -1.5z" />
    <glyph glyph-name="circumflex" unicode="&#x2c6;" horiz-adv-x="278" 
d="M205 581l-66 94l-66 -94h-80l100 141h92l100 -141h-80z" />
    <glyph glyph-name="caron" unicode="&#x2c7;" horiz-adv-x="278" 
d="M205 722h80l-100 -141h-92l-100 141h80l66 -94z" />
    <glyph glyph-name="uni02C9" unicode="&#x2c9;" horiz-adv-x="278" 
d="M1 664h276v-56h-276v56z" />
    <glyph glyph-name="breve" unicode="&#x2d8;" horiz-adv-x="278" 
d="M-15 722h49q7 -40 35 -59.5t70 -19.5q88 0 105 79h49q-8 -64 -47 -99.5t-104 -35.5q-149 0 -157 135z" />
    <glyph glyph-name="dotaccent" unicode="&#x2d9;" horiz-adv-x="278" 
d="M186 694v-104h-94v104h94z" />
    <glyph glyph-name="ring" unicode="&#x2da;" horiz-adv-x="278" 
d="M139 570q-42 0 -71.5 29.5t-29.5 71.5t29.5 71.5t71.5 29.5t71.5 -29.5t29.5 -71.5t-29.5 -71.5t-71.5 -29.5zM199 671q0 25 -18 42.5t-42 17.5q-25 0 -42.5 -17.5t-17.5 -42.5q0 -24 17.5 -42t42.5 -18q24 0 42 18t18 42z" />
    <glyph glyph-name="ogonek" unicode="&#x2db;" horiz-adv-x="278" 
d="M245 -115v-54q-58 -22 -107 -22q-41 0 -73.5 23t-32.5 68q0 34 38.5 61.5t82.5 38.5l59 2v-2q-47 -16 -72.5 -39.5t-25.5 -45.5q0 -25 13 -37.5t33 -12.5q28 0 85 20z" />
    <glyph glyph-name="tilde" unicode="&#x2dc;" horiz-adv-x="278" 
d="M258 694h51q-5 -45 -31 -76q-28 -33 -73 -33q-19 0 -72 19q-47 19 -72 19q-17 0 -30.5 -14t-15.5 -31h-46q5 49 31 78.5t73 29.5q29 0 75 -18q44 -19 59 -19q47 0 51 45z" />
    <glyph glyph-name="hungarumlaut" unicode="&#x2dd;" horiz-adv-x="444" 
d="M129 722h109l-131 -141h-67zM312 722h109l-131 -141h-67z" />
    <glyph glyph-name="uni03A9" unicode="&#x3a9;" horiz-adv-x="562" 
d="M149 72v3q-103 126 -103 305q0 143 67 234t171 91q71 0 124.5 -45.5t79.5 -117t26 -155.5q0 -96 -30.5 -179t-73.5 -133v-3h115v-72h-197v52q44 40 74 123t30 192q-1 105 -39.5 184t-110.5 79q-70 0 -112 -74.5t-42 -191.5q0 -102 31 -188t73 -124v-52h-197v72h114z" />
    <glyph glyph-name="uni03BC" unicode="&#x3bc;" 
d="M342 0v61h-3q-42 -71 -128 -71q-37 0 -54 10v-191h-82v696h82v-350q0 -47 22 -74.5t64 -27.5q38 0 68.5 29.5t30.5 87.5v335h82v-400q0 -47 5 -105h-87z" />
    <glyph glyph-name="pi" unicode="&#x3c0;" horiz-adv-x="475" 
d="M452 443h-61v-307q0 -82 12 -136h-77q-15 30 -15 133v310h-129q-3 -102 -19.5 -235.5t-38.5 -207.5h-78q23 82 38.5 212.5t17.5 230.5q-55 0 -82 -9l-11 57q37 28 124 28h326z" />
    <glyph glyph-name="endash" unicode="&#x2013;" 
d="M0 243v56h500v-56h-500z" />
    <glyph glyph-name="emdash" unicode="&#x2014;" horiz-adv-x="1000" 
d="M0 243v56h1000v-56h-1000z" />
    <glyph glyph-name="quoteleft" unicode="&#x2018;" horiz-adv-x="222" 
d="M186 722l-43 -199h-108l82 199h69z" />
    <glyph glyph-name="quoteright" unicode="&#x2019;" horiz-adv-x="222" 
d="M35 523l43 199h108l-82 -199h-69z" />
    <glyph glyph-name="quotesinglbase" unicode="&#x201a;" horiz-adv-x="222" 
d="M35 -111l43 199h108l-82 -199h-69z" />
    <glyph glyph-name="quotedblleft" unicode="&#x201c;" horiz-adv-x="444" 
d="M214 721l-43 -199h-108l82 199h69zM381 721l-43 -199h-108l82 199h69z" />
    <glyph glyph-name="quotedblright" unicode="&#x201d;" horiz-adv-x="444" 
d="M63 523l43 199h108l-82 -199h-69zM230 523l43 199h108l-82 -199h-69z" />
    <glyph glyph-name="quotedblbase" unicode="&#x201e;" horiz-adv-x="444" 
d="M230 -111l43 199h108l-82 -199h-69zM63 -111l43 199h108l-82 -199h-69z" />
    <glyph glyph-name="dagger" unicode="&#x2020;" horiz-adv-x="444" 
d="M181 0v505h-142v67h142v150h82v-150h142v-67h-142v-505h-82z" />
    <glyph glyph-name="daggerdbl" unicode="&#x2021;" horiz-adv-x="444" 
d="M180 505h-140v67h140v150h82v-150h141v-67h-141v-288h141v-67h-141v-150h-82v150h-140v67h140v288z" />
    <glyph glyph-name="bullet" unicode="&#x2022;" horiz-adv-x="333" 
d="M320 361q0 -62 -45.5 -107.5t-108.5 -45.5q-62 0 -107.5 45.5t-45.5 107.5q0 63 45.5 108.5t107.5 45.5q63 0 108.5 -45.5t45.5 -108.5z" />
    <glyph glyph-name="ellipsis" unicode="&#x2026;" horiz-adv-x="1000" 
d="M214 104v-104h-94v104h94zM547 104v-104h-94v104h94zM880 104v-104h-94v104h94z" />
    <glyph glyph-name="perthousand" unicode="&#x2030;" horiz-adv-x="889" 
d="M138 734q32 0 54.5 -10t34.5 -23.5t18 -39t7 -45t1 -52.5q0 -31 -1.5 -52t-8 -48t-18 -43t-34 -27.5t-53.5 -11.5t-53.5 11.5t-34 27.5t-18 43t-8 48t-1.5 52q0 33 1 52.5t7 45t18 39t34.5 23.5t54.5 10zM138 438q12 0 21.5 5.5t15 17t9 21.5t4.5 27.5t1.5 26.5t0 26.5
t-0.5 19.5q0 61 -13 79q-12 17 -38 17q-13 0 -22.5 -3.5t-15 -13.5t-8.5 -15.5t-4 -22.5t-1 -19.5v-21.5q0 -2 -0.5 -19.5t0 -26.5t1.5 -26.5t4.5 -27.5t9 -21.5t15 -17t21.5 -5.5zM459 337q32 0 54.5 -10t34.5 -23.5t18 -39t7 -45t1 -52.5q0 -31 -1.5 -52t-8 -48t-18 -43
t-34 -27.5t-53.5 -11.5t-53.5 11.5t-34 27.5t-18 43t-8 48t-1.5 52q0 33 1 52.5t7 45t18 39t34.5 23.5t54.5 10zM459 41q12 0 21.5 5.5t15 17t9 21.5t4.5 27.5t1.5 26.5t0 26.5t-0.5 19.5q0 61 -13 79q-12 17 -38 17q-13 0 -22.5 -3.5t-15 -13.5t-8.5 -15.5t-4 -22.5
t-1 -19.5v-21.5q0 -2 -0.5 -19.5t0 -26.5t1.5 -26.5t4.5 -27.5t9 -21.5t15 -17t21.5 -5.5zM750 337q32 0 54.5 -10t34.5 -23.5t18 -39t7 -45t1 -52.5q0 -31 -1.5 -52t-8 -48t-18 -43t-34 -27.5t-53.5 -11.5t-53.5 11.5t-34 27.5t-18 43t-8 48t-1.5 52q0 33 1 52.5t7 45
t18 39t34.5 23.5t54.5 10zM750 41q12 0 21.5 5.5t15 17t9 21.5t4.5 27.5t1.5 26.5t0 26.5t-0.5 19.5q0 61 -13 79q-12 17 -38 17q-13 0 -22.5 -3.5t-15 -13.5t-8.5 -15.5t-4 -22.5t-1 -19.5v-21.5q0 -2 -0.5 -19.5t0 -26.5t1.5 -26.5t4.5 -27.5t9 -21.5t15 -17t21.5 -5.5z
M95 -34l341 794h63l-343 -794h-61z" />
    <glyph glyph-name="guilsinglleft" unicode="&#x2039;" horiz-adv-x="222" 
d="M114 77l-90 193l93 196h76l-79 -196l78 -193h-78z" />
    <glyph glyph-name="guilsinglright" unicode="&#x203a;" horiz-adv-x="222" 
d="M108 77h-78l78 193l-79 196h76l93 -196z" />
    <glyph glyph-name="fraction" unicode="&#x2044;" horiz-adv-x="167" 
d="M-103 -30h-63l437 749h62z" />
    <glyph glyph-name="Euro" unicode="&#x20ac;" horiz-adv-x="444" 
d="M18 314h46v66h-57l11 67h48v49q0 214 182 214q84 0 129.5 -45t45.5 -136h-89q0 100 -86 100q-89 0 -89 -123v-59h160l-11 -67h-150v-66h138l-11 -67h-126v-59q0 -64 22.5 -95.5t71.5 -31.5q45 0 64.5 23.5t19.5 77.5h87q0 -180 -176 -180q-183 0 -183 205v60h-58z" />
    <glyph glyph-name="afii61289" unicode="&#x2113;" horiz-adv-x="406" 
d="M354 140l35 -34q-53 -117 -155 -117q-139 0 -143 183v14q-6 -6 -22 -20.5t-24 -21.5l-23 47q45 41 68 68v268q0 120 39 177t98 57q50 0 76.5 -43.5t26.5 -116.5q0 -164 -162 -351v-46q1 -148 82 -148q58 0 104 84zM168 522v-187q113 150 113 269q0 92 -52 92
q-26 0 -43.5 -41.5t-17.5 -132.5z" />
    <glyph glyph-name="trademark" unicode="&#x2122;" horiz-adv-x="825" 
d="M790 722v-433h-70v341h-2l-120 -341h-57l-114 341h-2v-341h-70v433h111l108 -322h2l105 322h109zM-3 722h308v-56h-119v-377h-70v377h-119v56z" />
    <glyph glyph-name="Omega" unicode="&#x2126;" horiz-adv-x="562" 
d="M149 72v3q-103 126 -103 305q0 143 67 234t171 91q71 0 124.5 -45.5t79.5 -117t26 -155.5q0 -96 -30.5 -179t-73.5 -133v-3h115v-72h-197v52q44 40 74 123t30 192q-1 105 -39.5 184t-110.5 79q-70 0 -112 -74.5t-42 -191.5q0 -102 31 -188t73 -124v-52h-197v72h114z" />
    <glyph glyph-name="estimated" unicode="&#x212e;" horiz-adv-x="868" 
d="M833 335h-647q-5 0 -5 -4v-196q0 -12 8 -23q103 -106 245 -106q75 0 142 32t116 87h57q-54 -64 -137.5 -101.5t-178.5 -37.5q-165 0 -282 105t-117 254t117 254.5t282 105.5q166 0 283 -105.5t117 -254.5v-10zM686 360v198q0 14 -9 23q-104 102 -243 102
q-141 0 -244 -105q-9 -10 -9 -25v-193q0 -6 5 -6h496q4 0 4 6z" />
    <glyph glyph-name="partialdiff" unicode="&#x2202;" horiz-adv-x="458" 
d="M87 660l-25 67q61 52 140 52q90 0 152 -93.5t62 -278.5q0 -197 -57 -307t-162 -110q-76 0 -118.5 65.5t-42.5 162.5q0 116 53 187.5t126 71.5q44 0 76 -23.5t44 -49.5h1q1 9 1 36q0 113 -41.5 189.5t-103.5 76.5q-59 0 -105 -46zM204 64h1q50 0 83.5 74.5t40.5 180.5
q-9 34 -36.5 60.5t-64.5 26.5q-47 0 -79 -56.5t-32 -134.5q0 -69 23.5 -110t63.5 -41z" />
    <glyph glyph-name="Delta" unicode="&#x2206;" horiz-adv-x="525" 
d="M26 0v54l193 656h93l187 -654v-56h-473zM107 70h308l-102 347q-5 21 -24.5 87.5t-24.5 92.5h-3q-4 -23 -22 -83t-24 -85z" />
    <glyph glyph-name="product" unicode="&#x220f;" horiz-adv-x="579" 
d="M555 615h-83v-711h-81v711h-204v-711h-81v711h-82v80h531v-80z" />
    <glyph glyph-name="summation" unicode="&#x2211;" horiz-adv-x="454" 
d="M436 -96h-415v59l212 337l-204 333v62h392v-73h-285v-3l188 -304l-207 -325v-4h319v-82z" />
    <glyph glyph-name="minus" unicode="&#x2212;" 
d="M43 222v62h414v-62h-414z" />
    <glyph glyph-name="uni2215" unicode="&#x2215;" horiz-adv-x="167" 
d="M-103 -30h-63l437 749h62z" />
    <glyph glyph-name="uni2219" unicode="&#x2219;" horiz-adv-x="222" 
d="M158 305v-104h-94v104h94z" />
    <glyph glyph-name="radical" unicode="&#x221a;" horiz-adv-x="488" 
d="M483 831l-182 -975h-68l-128 454l-62 -24l-14 52l128 49l94 -333q3 -17 8.5 -46.5t6.5 -37.5l1 -1q1 7 5 37t7 48l147 777h57z" />
    <glyph glyph-name="infinity" unicode="&#x221e;" horiz-adv-x="683" 
d="M640 289v-1q0 -65 -41 -105.5t-97 -40.5q-41 0 -77.5 23.5t-81.5 78.5q-42 -49 -79.5 -75.5t-86.5 -26.5q-55 0 -94.5 40.5t-39.5 101.5q0 64 39.5 104.5t101.5 40.5q46 0 84 -26.5t77 -74.5q1 1 14 15t15.5 16.5t14 15t16.5 15.5t16.5 12t19.5 12t19.5 7.5t23 6
t24.5 1.5q58 0 95 -38.5t37 -101.5zM184 192h1q9 0 17.5 1.5t17 5.5t14.5 7t15.5 10.5t13.5 11t14 13.5t12.5 13t13 14.5t12.5 13.5q-21 27 -30.5 38t-28 29t-37 25t-39.5 7q-40 0 -62.5 -28t-22.5 -70q0 -39 25 -65t64 -26zM503 381h-1q-16 0 -31.5 -6t-31 -18.5t-25 -21.5
t-24.5 -26.5t-19 -21.5q46 -54 73 -74.5t61 -20.5q37 0 60 28.5t23 63.5q0 44 -23.5 70.5t-61.5 26.5z" />
    <glyph glyph-name="integral" unicode="&#x222b;" horiz-adv-x="329" 
d="M306 841l-11 -61q-16 8 -29 8q-26 0 -42 -25q-26 -36 -26 -174q0 -78 5.5 -244t5.5 -251q0 -139 -35 -201q-29 -56 -97 -56q-34 0 -57 14l13 64q16 -9 35 -9q26 0 38 22q25 38 25 165q0 86 -5.5 255t-5.5 248q0 158 48 214q34 42 90 42q28 0 48 -11z" />
    <glyph glyph-name="approxequal" unicode="&#x2248;" horiz-adv-x="463" 
d="M395 420l33 -26q-39 -91 -111 -91q-37 0 -95 36q-48 30 -75 30q-26 0 -43.5 -17t-35.5 -49l-33 26q19 42 49.5 66.5t67.5 24.5q12 0 23 -2t22 -7t17.5 -8t17.5 -10t13 -8q3 -2 15.5 -9.5t16.5 -9.5t13 -6t15.5 -5.5t14.5 -1.5q41 0 75 67zM395 265l33 -27
q-40 -90 -111 -90q-37 0 -95 36q-49 31 -75 31q-18 0 -34 -10.5t-24.5 -23t-20.5 -33.5l-33 26q19 42 49.5 66.5t67.5 24.5q12 0 23.5 -2t22 -7t17.5 -8.5t17 -9.5t13 -8q5 -3 15.5 -9.5t16 -9t13.5 -6.5t15.5 -5.5t14.5 -1.5q24 0 40 16t35 51z" />
    <glyph glyph-name="notequal" unicode="&#x2260;" horiz-adv-x="463" 
d="M335 478l-36 -82h122v-52h-140l-54 -124h194v-53h-213l-42 -98l-40 16l35 82h-119v53h138l53 124h-191v52h210l42 98z" />
    <glyph glyph-name="lessequal" unicode="&#x2264;" horiz-adv-x="463" 
d="M418 106l-371 204v56l371 204v-64l-319 -166v-2l319 -168v-64zM422 15h-379v54h379v-54z" />
    <glyph glyph-name="greaterequal" unicode="&#x2265;" horiz-adv-x="463" 
d="M49 570l371 -204v-56l-371 -204v64l318 167v2l-318 167v64zM421 15h-377v54h377v-54z" />
    <glyph glyph-name="lozenge" unicode="&#x25ca;" horiz-adv-x="488" 
d="M442 347l-167 -386h-68l-161 386l166 386h68zM367 345l-105 253q-10 28 -16 60h-3q-8 -37 -17 -60l-106 -249l106 -256q10 -27 15 -57h4q10 43 15 55z" />
    </font>
</defs>
</svg>
